# Tiled2Unity generated file. Do not modify by hand.
# Wavefront file for 'Stage_1_0_v3_mesh_0002.obj'

# Vertices (Count = 32)
v -9 -9 0
v -10 -9 0
v -10 -8 0
v -9 -8 0
v -8 -9 0
v -9 -9 0
v -9 -8 0
v -8 -8 0
v -7 -9 0
v -8 -9 0
v -8 -8 0
v -7 -8 0
v -6 -9 0
v -7 -9 0
v -7 -8 0
v -6 -8 0
v -9 -10 0
v -10 -10 0
v -10 -9 0
v -9 -9 0
v -8 -10 0
v -9 -10 0
v -9 -9 0
v -8 -9 0
v -7 -10 0
v -8 -10 0
v -8 -9 0
v -7 -9 0
v -6 -10 0
v -7 -10 0
v -7 -9 0
v -6 -9 0

# Texture cooridinates (Count = 15)
vt 0.25 0.5
vt 0.3333333 0.5
vt 0.3333333 1
vt 0.25 1
vt 0.1666667 0.5
vt 0.1666667 1
vt 0.08333334 0.5
vt 0.08333334 1
vt 0 0.5
vt 0 1
vt 0.25 0
vt 0.3333333 0
vt 0.1666667 0
vt 0.08333334 0
vt 0 0

# Normal
vn 0 0 -1

# Mesh description
g Stage_1_0_v3_mesh_0002

# Faces
f 1/1/1 2/2/1 3/3/1 4/4/1
f 5/5/1 6/1/1 7/4/1 8/6/1
f 9/7/1 10/5/1 11/6/1 12/8/1
f 13/9/1 14/7/1 15/8/1 16/10/1
f 17/11/1 18/12/1 19/2/1 20/1/1
f 21/13/1 22/11/1 23/1/1 24/5/1
f 25/14/1 26/13/1 27/5/1 28/7/1
f 29/15/1 30/14/1 31/7/1 32/9/1

