# Tiled2Unity generated file. Do not modify by hand.
# Wavefront file for 'Stage_1_0_v3_mesh_0003.obj'

# Vertices (Count = 168)
v -12 -10 0
v -13 -10 0
v -13 -9 0
v -12 -9 0
v -5 -10 0
v -6 -10 0
v -6 -9 0
v -5 -9 0
v -19 -11 0
v -20 -11 0
v -20 -10 0
v -19 -10 0
v -18 -11 0
v -19 -11 0
v -19 -10 0
v -18 -10 0
v -17 -11 0
v -18 -11 0
v -18 -10 0
v -17 -10 0
v -16 -11 0
v -17 -11 0
v -17 -10 0
v -16 -10 0
v -15 -11 0
v -16 -11 0
v -16 -10 0
v -15 -10 0
v -14 -11 0
v -15 -11 0
v -15 -10 0
v -14 -10 0
v -13 -11 0
v -14 -11 0
v -14 -10 0
v -13 -10 0
v -12 -11 0
v -13 -11 0
v -13 -10 0
v -12 -10 0
v -11 -11 0
v -12 -11 0
v -12 -10 0
v -11 -10 0
v -10 -11 0
v -11 -11 0
v -11 -10 0
v -10 -10 0
v -9 -11 0
v -10 -11 0
v -10 -10 0
v -9 -10 0
v -8 -11 0
v -9 -11 0
v -9 -10 0
v -8 -10 0
v -7 -11 0
v -8 -11 0
v -8 -10 0
v -7 -10 0
v -6 -11 0
v -7 -11 0
v -7 -10 0
v -6 -10 0
v -5 -11 0
v -6 -11 0
v -6 -10 0
v -5 -10 0
v -4 -11 0
v -5 -11 0
v -5 -10 0
v -4 -10 0
v -3 -11 0
v -4 -11 0
v -4 -10 0
v -3 -10 0
v -2 -11 0
v -3 -11 0
v -3 -10 0
v -2 -10 0
v -1 -11 0
v -2 -11 0
v -2 -10 0
v -1 -10 0
v 0 -11 0
v -1 -11 0
v -1 -10 0
v 0 -10 0
v -19 -12 0
v -20 -12 0
v -20 -11 0
v -19 -11 0
v -18 -12 0
v -19 -12 0
v -19 -11 0
v -18 -11 0
v -17 -12 0
v -18 -12 0
v -18 -11 0
v -17 -11 0
v -16 -12 0
v -17 -12 0
v -17 -11 0
v -16 -11 0
v -15 -12 0
v -16 -12 0
v -16 -11 0
v -15 -11 0
v -14 -12 0
v -15 -12 0
v -15 -11 0
v -14 -11 0
v -13 -12 0
v -14 -12 0
v -14 -11 0
v -13 -11 0
v -12 -12 0
v -13 -12 0
v -13 -11 0
v -12 -11 0
v -11 -12 0
v -12 -12 0
v -12 -11 0
v -11 -11 0
v -10 -12 0
v -11 -12 0
v -11 -11 0
v -10 -11 0
v -9 -12 0
v -10 -12 0
v -10 -11 0
v -9 -11 0
v -8 -12 0
v -9 -12 0
v -9 -11 0
v -8 -11 0
v -7 -12 0
v -8 -12 0
v -8 -11 0
v -7 -11 0
v -6 -12 0
v -7 -12 0
v -7 -11 0
v -6 -11 0
v -5 -12 0
v -6 -12 0
v -6 -11 0
v -5 -11 0
v -4 -12 0
v -5 -12 0
v -5 -11 0
v -4 -11 0
v -3 -12 0
v -4 -12 0
v -4 -11 0
v -3 -11 0
v -2 -12 0
v -3 -12 0
v -3 -11 0
v -2 -11 0
v -1 -12 0
v -2 -12 0
v -2 -11 0
v -1 -11 0
v 0 -12 0
v -1 -12 0
v -1 -11 0
v 0 -11 0

# Texture cooridinates (Count = 18)
vt 0.475 0.6666666
vt 0.5 0.6666666
vt 0.5 0.75
vt 0.475 0.75
vt 0.45 0.6666666
vt 0.45 0.75
vt 0.3 0.6666666
vt 0.325 0.6666666
vt 0.325 0.75
vt 0.3 0.75
vt 0.3 0.5833334
vt 0.325 0.5833334
vt 0.9 0.5
vt 0.925 0.5
vt 0.925 0.5833334
vt 0.9 0.5833334
vt 0.875 0.5
vt 0.875 0.5833334

# Normal
vn 0 0 -1

# Mesh description
g Stage_1_0_v3_mesh_0003

# Faces
f 1/1/1 2/2/1 3/3/1 4/4/1
f 5/5/1 6/1/1 7/4/1 8/6/1
f 9/7/1 10/8/1 11/9/1 12/10/1
f 13/7/1 14/8/1 15/9/1 16/10/1
f 17/7/1 18/8/1 19/9/1 20/10/1
f 21/7/1 22/8/1 23/9/1 24/10/1
f 25/7/1 26/8/1 27/9/1 28/10/1
f 29/7/1 30/8/1 31/9/1 32/10/1
f 33/7/1 34/8/1 35/9/1 36/10/1
f 37/7/1 38/8/1 39/9/1 40/10/1
f 41/7/1 42/8/1 43/9/1 44/10/1
f 45/7/1 46/8/1 47/9/1 48/10/1
f 49/7/1 50/8/1 51/9/1 52/10/1
f 53/7/1 54/8/1 55/9/1 56/10/1
f 57/7/1 58/8/1 59/9/1 60/10/1
f 61/7/1 62/8/1 63/9/1 64/10/1
f 65/7/1 66/8/1 67/9/1 68/10/1
f 69/7/1 70/8/1 71/9/1 72/10/1
f 73/7/1 74/8/1 75/9/1 76/10/1
f 77/7/1 78/8/1 79/9/1 80/10/1
f 81/7/1 82/8/1 83/9/1 84/10/1
f 85/7/1 86/8/1 87/9/1 88/10/1
f 89/11/1 90/12/1 91/8/1 92/7/1
f 93/11/1 94/12/1 95/8/1 96/7/1
f 97/11/1 98/12/1 99/8/1 100/7/1
f 101/13/1 102/14/1 103/15/1 104/16/1
f 105/17/1 106/13/1 107/16/1 108/18/1
f 109/17/1 110/13/1 111/16/1 112/18/1
f 113/11/1 114/12/1 115/8/1 116/7/1
f 117/11/1 118/12/1 119/8/1 120/7/1
f 121/11/1 122/12/1 123/8/1 124/7/1
f 125/11/1 126/12/1 127/8/1 128/7/1
f 129/11/1 130/12/1 131/8/1 132/7/1
f 133/11/1 134/12/1 135/8/1 136/7/1
f 137/11/1 138/12/1 139/8/1 140/7/1
f 141/11/1 142/12/1 143/8/1 144/7/1
f 145/11/1 146/12/1 147/8/1 148/7/1
f 149/11/1 150/12/1 151/8/1 152/7/1
f 153/11/1 154/12/1 155/8/1 156/7/1
f 157/11/1 158/12/1 159/8/1 160/7/1
f 161/11/1 162/12/1 163/8/1 164/7/1
f 165/11/1 166/12/1 167/8/1 168/7/1

