# Tiled2Unity generated file. Do not modify by hand.
# Wavefront file for 'Stage_1_1_v3_mesh_0002.obj'

# Vertices (Count = 168)
v -29 -5 0
v -30 -5 0
v -30 -4 0
v -29 -4 0
v -29 -6 0
v -30 -6 0
v -30 -5 0
v -29 -5 0
v -14 -6 0
v -15 -6 0
v -15 -5 0
v -14 -5 0
v -29 -7 0
v -30 -7 0
v -30 -6 0
v -29 -6 0
v -17 -7 0
v -18 -7 0
v -18 -6 0
v -17 -6 0
v -16 -7 0
v -17 -7 0
v -17 -6 0
v -16 -6 0
v -15 -7 0
v -16 -7 0
v -16 -6 0
v -15 -6 0
v -14 -7 0
v -15 -7 0
v -15 -6 0
v -14 -6 0
v -13 -7 0
v -14 -7 0
v -14 -6 0
v -13 -6 0
v -12 -7 0
v -13 -7 0
v -13 -6 0
v -12 -6 0
v -11 -7 0
v -12 -7 0
v -12 -6 0
v -11 -6 0
v -18 -8 0
v -19 -8 0
v -19 -7 0
v -18 -7 0
v -17 -8 0
v -18 -8 0
v -18 -7 0
v -17 -7 0
v -16 -8 0
v -17 -8 0
v -17 -7 0
v -16 -7 0
v -15 -8 0
v -16 -8 0
v -16 -7 0
v -15 -7 0
v -14 -8 0
v -15 -8 0
v -15 -7 0
v -14 -7 0
v -13 -8 0
v -14 -8 0
v -14 -7 0
v -13 -7 0
v -12 -8 0
v -13 -8 0
v -13 -7 0
v -12 -7 0
v -11 -8 0
v -12 -8 0
v -12 -7 0
v -11 -7 0
v -10 -8 0
v -11 -8 0
v -11 -7 0
v -10 -7 0
v -19 -9 0
v -20 -9 0
v -20 -8 0
v -19 -8 0
v -18 -9 0
v -19 -9 0
v -19 -8 0
v -18 -8 0
v -17 -9 0
v -18 -9 0
v -18 -8 0
v -17 -8 0
v -16 -9 0
v -17 -9 0
v -17 -8 0
v -16 -8 0
v -15 -9 0
v -16 -9 0
v -16 -8 0
v -15 -8 0
v -14 -9 0
v -15 -9 0
v -15 -8 0
v -14 -8 0
v -13 -9 0
v -14 -9 0
v -14 -8 0
v -13 -8 0
v -12 -9 0
v -13 -9 0
v -13 -8 0
v -12 -8 0
v -11 -9 0
v -12 -9 0
v -12 -8 0
v -11 -8 0
v -10 -9 0
v -11 -9 0
v -11 -8 0
v -10 -8 0
v -9 -9 0
v -10 -9 0
v -10 -8 0
v -9 -8 0
v -19 -10 0
v -20 -10 0
v -20 -9 0
v -19 -9 0
v -18 -10 0
v -19 -10 0
v -19 -9 0
v -18 -9 0
v -17 -10 0
v -18 -10 0
v -18 -9 0
v -17 -9 0
v -16 -10 0
v -17 -10 0
v -17 -9 0
v -16 -9 0
v -15 -10 0
v -16 -10 0
v -16 -9 0
v -15 -9 0
v -14 -10 0
v -15 -10 0
v -15 -9 0
v -14 -9 0
v -13 -10 0
v -14 -10 0
v -14 -9 0
v -13 -9 0
v -12 -10 0
v -13 -10 0
v -13 -9 0
v -12 -9 0
v -11 -10 0
v -12 -10 0
v -12 -9 0
v -11 -9 0
v -9 -10 0
v -10 -10 0
v -10 -9 0
v -9 -9 0
v -8 -10 0
v -9 -10 0
v -9 -9 0
v -8 -9 0

# Texture cooridinates (Count = 19)
vt 0.9 0.6666666
vt 0.925 0.6666666
vt 0.925 0.75
vt 0.9 0.75
vt 0.925 0.5
vt 0.95 0.5
vt 0.95 0.5833334
vt 0.925 0.5833334
vt 0.15 0.6666666
vt 0.175 0.6666666
vt 0.175 0.75
vt 0.15 0.75
vt 0.2 0.6666666
vt 0.225 0.6666666
vt 0.225 0.75
vt 0.2 0.75
vt 0.175 0.5833334
vt 0.2 0.5833334
vt 0.15 0.5833334

# Normal
vn 0 0 -1

# Mesh description
g Stage_1_1_v3_mesh_0002

# Faces
f 1/1/1 2/2/1 3/3/1 4/4/1
f 5/5/1 6/6/1 7/7/1 8/8/1
f 9/9/1 10/10/1 11/11/1 12/12/1
f 13/5/1 14/6/1 15/7/1 16/8/1
f 17/13/1 18/14/1 19/15/1 20/16/1
f 21/17/1 22/18/1 23/13/1 24/10/1
f 25/17/1 26/18/1 27/13/1 28/10/1
f 29/17/1 30/18/1 31/13/1 32/10/1
f 33/10/1 34/13/1 35/16/1 36/11/1
f 37/10/1 38/13/1 39/16/1 40/11/1
f 41/9/1 42/10/1 43/11/1 44/12/1
f 45/13/1 46/14/1 47/15/1 48/16/1
f 49/17/1 50/18/1 51/13/1 52/10/1
f 53/17/1 54/18/1 55/13/1 56/10/1
f 57/17/1 58/18/1 59/13/1 60/10/1
f 61/17/1 62/18/1 63/13/1 64/10/1
f 65/17/1 66/18/1 67/13/1 68/10/1
f 69/17/1 70/18/1 71/13/1 72/10/1
f 73/17/1 74/18/1 75/13/1 76/10/1
f 77/9/1 78/10/1 79/11/1 80/12/1
f 81/17/1 82/18/1 83/13/1 84/10/1
f 85/17/1 86/18/1 87/13/1 88/10/1
f 89/17/1 90/18/1 91/13/1 92/10/1
f 93/17/1 94/18/1 95/13/1 96/10/1
f 97/17/1 98/18/1 99/13/1 100/10/1
f 101/17/1 102/18/1 103/13/1 104/10/1
f 105/17/1 106/18/1 107/13/1 108/10/1
f 109/17/1 110/18/1 111/13/1 112/10/1
f 113/17/1 114/18/1 115/13/1 116/10/1
f 117/19/1 118/17/1 119/10/1 120/9/1
f 121/17/1 122/18/1 123/13/1 124/10/1
f 125/17/1 126/18/1 127/13/1 128/10/1
f 129/17/1 130/18/1 131/13/1 132/10/1
f 133/17/1 134/18/1 135/13/1 136/10/1
f 137/17/1 138/18/1 139/13/1 140/10/1
f 141/17/1 142/18/1 143/13/1 144/10/1
f 145/17/1 146/18/1 147/13/1 148/10/1
f 149/17/1 150/18/1 151/13/1 152/10/1
f 153/17/1 154/18/1 155/13/1 156/10/1
f 157/17/1 158/18/1 159/13/1 160/10/1
f 161/17/1 162/18/1 163/13/1 164/10/1
f 165/17/1 166/18/1 167/13/1 168/10/1

