# Tiled2Unity generated file. Do not modify by hand.
# Wavefront file for 'Stage_1_5_v3_mesh_0002.obj'

# Vertices (Count = 368)
v -29 -1 0
v -30 -1 0
v -30 0 0
v -29 0 0
v -28 -1 0
v -29 -1 0
v -29 0 0
v -28 0 0
v -27 -1 0
v -28 -1 0
v -28 0 0
v -27 0 0
v -26 -1 0
v -27 -1 0
v -27 0 0
v -26 0 0
v -25 -1 0
v -26 -1 0
v -26 0 0
v -25 0 0
v -24 -1 0
v -25 -1 0
v -25 0 0
v -24 0 0
v -23 -1 0
v -24 -1 0
v -24 0 0
v -23 0 0
v -22 -1 0
v -23 -1 0
v -23 0 0
v -22 0 0
v -21 -1 0
v -22 -1 0
v -22 0 0
v -21 0 0
v -20 -1 0
v -21 -1 0
v -21 0 0
v -20 0 0
v -19 -1 0
v -20 -1 0
v -20 0 0
v -19 0 0
v -18 -1 0
v -19 -1 0
v -19 0 0
v -18 0 0
v -17 -1 0
v -18 -1 0
v -18 0 0
v -17 0 0
v -16 -1 0
v -17 -1 0
v -17 0 0
v -16 0 0
v -15 -1 0
v -16 -1 0
v -16 0 0
v -15 0 0
v -14 -1 0
v -15 -1 0
v -15 0 0
v -14 0 0
v -13 -1 0
v -14 -1 0
v -14 0 0
v -13 0 0
v -12 -1 0
v -13 -1 0
v -13 0 0
v -12 0 0
v -11 -1 0
v -12 -1 0
v -12 0 0
v -11 0 0
v -10 -1 0
v -11 -1 0
v -11 0 0
v -10 0 0
v -9 -1 0
v -10 -1 0
v -10 0 0
v -9 0 0
v -8 -1 0
v -9 -1 0
v -9 0 0
v -8 0 0
v -7 -1 0
v -8 -1 0
v -8 0 0
v -7 0 0
v -6 -1 0
v -7 -1 0
v -7 0 0
v -6 0 0
v -5 -1 0
v -6 -1 0
v -6 0 0
v -5 0 0
v -4 -1 0
v -5 -1 0
v -5 0 0
v -4 0 0
v -3 -1 0
v -4 -1 0
v -4 0 0
v -3 0 0
v -2 -1 0
v -3 -1 0
v -3 0 0
v -2 0 0
v -1 -1 0
v -2 -1 0
v -2 0 0
v -1 0 0
v 0 -1 0
v -1 -1 0
v -1 0 0
v 0 0 0
v -25 -2 0
v -26 -2 0
v -26 -1 0
v -25 -1 0
v -24 -2 0
v -25 -2 0
v -25 -1 0
v -24 -1 0
v -23 -2 0
v -24 -2 0
v -24 -1 0
v -23 -1 0
v -22 -2 0
v -23 -2 0
v -23 -1 0
v -22 -1 0
v -21 -2 0
v -22 -2 0
v -22 -1 0
v -21 -1 0
v -20 -2 0
v -21 -2 0
v -21 -1 0
v -20 -1 0
v -5 -2 0
v -6 -2 0
v -6 -1 0
v -5 -1 0
v -4 -2 0
v -5 -2 0
v -5 -1 0
v -4 -1 0
v -3 -2 0
v -4 -2 0
v -4 -1 0
v -3 -1 0
v -2 -2 0
v -3 -2 0
v -3 -1 0
v -2 -1 0
v -1 -2 0
v -2 -2 0
v -2 -1 0
v -1 -1 0
v 0 -2 0
v -1 -2 0
v -1 -1 0
v 0 -1 0
v -24 -3 0
v -25 -3 0
v -25 -2 0
v -24 -2 0
v -23 -3 0
v -24 -3 0
v -24 -2 0
v -23 -2 0
v -22 -3 0
v -23 -3 0
v -23 -2 0
v -22 -2 0
v -21 -3 0
v -22 -3 0
v -22 -2 0
v -21 -2 0
v 0 -3 0
v -1 -3 0
v -1 -2 0
v 0 -2 0
v -11 -4 0
v -12 -4 0
v -12 -3 0
v -11 -3 0
v -10 -4 0
v -11 -4 0
v -11 -3 0
v -10 -3 0
v -9 -4 0
v -10 -4 0
v -10 -3 0
v -9 -3 0
v -8 -4 0
v -9 -4 0
v -9 -3 0
v -8 -3 0
v -7 -4 0
v -8 -4 0
v -8 -3 0
v -7 -3 0
v -6 -4 0
v -7 -4 0
v -7 -3 0
v -6 -3 0
v -14 -5 0
v -15 -5 0
v -15 -4 0
v -14 -4 0
v -10 -5 0
v -11 -5 0
v -11 -4 0
v -10 -4 0
v -9 -5 0
v -10 -5 0
v -10 -4 0
v -9 -4 0
v -8 -5 0
v -9 -5 0
v -9 -4 0
v -8 -4 0
v -7 -5 0
v -8 -5 0
v -8 -4 0
v -7 -4 0
v -29 -6 0
v -30 -6 0
v -30 -5 0
v -29 -5 0
v -28 -6 0
v -29 -6 0
v -29 -5 0
v -28 -5 0
v -18 -6 0
v -19 -6 0
v -19 -5 0
v -18 -5 0
v -17 -6 0
v -18 -6 0
v -18 -5 0
v -17 -5 0
v -29 -7 0
v -30 -7 0
v -30 -6 0
v -29 -6 0
v -28 -7 0
v -29 -7 0
v -29 -6 0
v -28 -6 0
v -27 -7 0
v -28 -7 0
v -28 -6 0
v -27 -6 0
v -26 -7 0
v -27 -7 0
v -27 -6 0
v -26 -6 0
v -29 -8 0
v -30 -8 0
v -30 -7 0
v -29 -7 0
v -28 -8 0
v -29 -8 0
v -29 -7 0
v -28 -7 0
v -27 -8 0
v -28 -8 0
v -28 -7 0
v -27 -7 0
v -26 -8 0
v -27 -8 0
v -27 -7 0
v -26 -7 0
v -29 -9 0
v -30 -9 0
v -30 -8 0
v -29 -8 0
v -28 -9 0
v -29 -9 0
v -29 -8 0
v -28 -8 0
v -23 -9 0
v -24 -9 0
v -24 -8 0
v -23 -8 0
v -22 -9 0
v -23 -9 0
v -23 -8 0
v -22 -8 0
v -21 -9 0
v -22 -9 0
v -22 -8 0
v -21 -8 0
v -29 -10 0
v -30 -10 0
v -30 -9 0
v -29 -9 0
v -22 -10 0
v -23 -10 0
v -23 -9 0
v -22 -9 0
v -29 -11 0
v -30 -11 0
v -30 -10 0
v -29 -10 0
v -28 -11 0
v -29 -11 0
v -29 -10 0
v -28 -10 0
v -13 -11 0
v -14 -11 0
v -14 -10 0
v -13 -10 0
v -12 -11 0
v -13 -11 0
v -13 -10 0
v -12 -10 0
v -11 -11 0
v -12 -11 0
v -12 -10 0
v -11 -10 0
v -10 -11 0
v -11 -11 0
v -11 -10 0
v -10 -10 0
v 0 -11 0
v -1 -11 0
v -1 -10 0
v 0 -10 0
v -29 -12 0
v -30 -12 0
v -30 -11 0
v -29 -11 0
v -28 -12 0
v -29 -12 0
v -29 -11 0
v -28 -11 0
v -27 -12 0
v -28 -12 0
v -28 -11 0
v -27 -11 0
v -13 -12 0
v -14 -12 0
v -14 -11 0
v -13 -11 0
v -12 -12 0
v -13 -12 0
v -13 -11 0
v -12 -11 0
v -11 -12 0
v -12 -12 0
v -12 -11 0
v -11 -11 0
v -10 -12 0
v -11 -12 0
v -11 -11 0
v -10 -11 0
v 0 -12 0
v -1 -12 0
v -1 -11 0
v 0 -11 0

# Texture cooridinates (Count = 59)
vt 0.875 0.3333333
vt 0.9 0.3333333
vt 0.9 0.4166667
vt 0.875 0.4166667
vt 0.925 0.4166667
vt 0.925 0.5
vt 0.9 0.5
vt 0.875 0.5
vt 0.85 0.4166667
vt 0.85 0.5
vt 0.925 0.3333333
vt 0.85 0.3333333
vt 0.6 0.3333333
vt 0.625 0.3333333
vt 0.625 0.4166667
vt 0.6 0.4166667
vt 0.575 0.3333333
vt 0.575 0.4166667
vt 0.55 0.3333333
vt 0.55 0.4166667
vt 0.725 0.75
vt 0.75 0.75
vt 0.75 0.8333333
vt 0.725 0.8333333
vt 0.675 0.3333333
vt 0.7 0.3333333
vt 0.7 0.4166667
vt 0.675 0.4166667
vt 0.45 0.4166667
vt 0.475 0.4166667
vt 0.475 0.5
vt 0.45 0.5
vt 0.65 0.3333333
vt 0.65 0.4166667
vt 0.875 0.6666666
vt 0.9 0.6666666
vt 0.9 0.75
vt 0.875 0.75
vt 0.85 0.6666666
vt 0.85 0.75
vt 0.85 0.5833334
vt 0.875 0.5833334
vt 0.825 0.4166667
vt 0.825 0.5
vt 0.825 0.5833334
vt 0.575 0.25
vt 0.6 0.25
vt 0.45 0.5833334
vt 0.475 0.5833334
vt 0.475 0.6666666
vt 0.45 0.6666666
vt 0.925 0.5833334
vt 0.95 0.5833334
vt 0.95 0.6666666
vt 0.925 0.6666666
vt 0.825 0.6666666
vt 0.925 0.75
vt 0.95 0.5
vt 0.9 0.5833334

# Normal
vn 0 0 -1

# Mesh description
g Stage_1_5_v3_mesh_0002

# Faces
f 1/1/1 2/2/1 3/3/1 4/4/1
f 5/1/1 6/2/1 7/3/1 8/4/1
f 9/1/1 10/2/1 11/3/1 12/4/1
f 13/1/1 14/2/1 15/3/1 16/4/1
f 17/3/1 18/5/1 19/6/1 20/7/1
f 21/4/1 22/3/1 23/7/1 24/8/1
f 25/4/1 26/3/1 27/7/1 28/8/1
f 29/4/1 30/3/1 31/7/1 32/8/1
f 33/4/1 34/3/1 35/7/1 36/8/1
f 37/9/1 38/4/1 39/8/1 40/10/1
f 41/1/1 42/2/1 43/3/1 44/4/1
f 45/1/1 46/2/1 47/3/1 48/4/1
f 49/1/1 50/2/1 51/3/1 52/4/1
f 53/1/1 54/2/1 55/3/1 56/4/1
f 57/1/1 58/2/1 59/3/1 60/4/1
f 61/1/1 62/2/1 63/3/1 64/4/1
f 65/1/1 66/2/1 67/3/1 68/4/1
f 69/1/1 70/2/1 71/3/1 72/4/1
f 73/1/1 74/2/1 75/3/1 76/4/1
f 77/1/1 78/2/1 79/3/1 80/4/1
f 81/1/1 82/2/1 83/3/1 84/4/1
f 85/1/1 86/2/1 87/3/1 88/4/1
f 89/1/1 90/2/1 91/3/1 92/4/1
f 93/1/1 94/2/1 95/3/1 96/4/1
f 97/3/1 98/5/1 99/6/1 100/7/1
f 101/4/1 102/3/1 103/7/1 104/8/1
f 105/4/1 106/3/1 107/7/1 108/8/1
f 109/4/1 110/3/1 111/7/1 112/8/1
f 113/4/1 114/3/1 115/7/1 116/8/1
f 117/4/1 118/3/1 119/7/1 120/8/1
f 121/2/1 122/11/1 123/5/1 124/3/1
f 125/3/1 126/5/1 127/6/1 128/7/1
f 129/4/1 130/3/1 131/7/1 132/8/1
f 133/4/1 134/3/1 135/7/1 136/8/1
f 137/9/1 138/4/1 139/8/1 140/10/1
f 141/12/1 142/1/1 143/4/1 144/9/1
f 145/2/1 146/11/1 147/5/1 148/3/1
f 149/1/1 150/2/1 151/3/1 152/4/1
f 153/1/1 154/2/1 155/3/1 156/4/1
f 157/1/1 158/2/1 159/3/1 160/4/1
f 161/1/1 162/2/1 163/3/1 164/4/1
f 165/3/1 166/5/1 167/6/1 168/7/1
f 169/2/1 170/11/1 171/5/1 172/3/1
f 173/1/1 174/2/1 175/3/1 176/4/1
f 177/1/1 178/2/1 179/3/1 180/4/1
f 181/12/1 182/1/1 183/4/1 184/9/1
f 185/2/1 186/11/1 187/5/1 188/3/1
f 189/13/1 190/14/1 191/15/1 192/16/1
f 193/17/1 194/13/1 195/16/1 196/18/1
f 197/17/1 198/13/1 199/16/1 200/18/1
f 201/17/1 202/13/1 203/16/1 204/18/1
f 205/17/1 206/13/1 207/16/1 208/18/1
f 209/19/1 210/17/1 211/18/1 212/20/1
f 213/21/1 214/22/1 215/23/1 216/24/1
f 217/25/1 218/26/1 219/27/1 220/28/1
f 221/29/1 222/30/1 223/31/1 224/32/1
f 225/29/1 226/30/1 227/31/1 228/32/1
f 229/33/1 230/25/1 231/28/1 232/34/1
f 233/35/1 234/36/1 235/37/1 236/38/1
f 237/39/1 238/35/1 239/38/1 240/40/1
f 241/13/1 242/14/1 243/15/1 244/16/1
f 245/19/1 246/17/1 247/18/1 248/20/1
f 249/4/1 250/3/1 251/7/1 252/8/1
f 253/41/1 254/42/1 255/35/1 256/39/1
f 257/35/1 258/36/1 259/37/1 260/38/1
f 261/39/1 262/35/1 263/38/1 264/40/1
f 265/4/1 266/3/1 267/7/1 268/8/1
f 269/9/1 270/4/1 271/8/1 272/10/1
f 273/1/1 274/2/1 275/3/1 276/4/1
f 277/43/1 278/9/1 279/10/1 280/44/1
f 281/9/1 282/4/1 283/8/1 284/10/1
f 285/43/1 286/9/1 287/10/1 288/44/1
f 289/13/1 290/14/1 291/15/1 292/16/1
f 293/17/1 294/13/1 295/16/1 296/18/1
f 297/19/1 298/17/1 299/18/1 300/20/1
f 301/44/1 302/10/1 303/41/1 304/45/1
f 305/46/1 306/47/1 307/13/1 308/17/1
f 309/48/1 310/49/1 311/50/1 312/51/1
f 313/39/1 314/35/1 315/38/1 316/40/1
f 317/52/1 318/53/1 319/54/1 320/55/1
f 321/35/1 322/36/1 323/37/1 324/38/1
f 325/35/1 326/36/1 327/37/1 328/38/1
f 329/45/1 330/41/1 331/39/1 332/56/1
f 333/36/1 334/55/1 335/57/1 336/37/1
f 337/4/1 338/3/1 339/7/1 340/8/1
f 341/41/1 342/42/1 343/35/1 344/39/1
f 345/45/1 346/41/1 347/39/1 348/56/1
f 349/6/1 350/58/1 351/53/1 352/52/1
f 353/7/1 354/6/1 355/52/1 356/59/1
f 357/8/1 358/7/1 359/59/1 360/42/1
f 361/44/1 362/10/1 363/41/1 364/45/1
f 365/6/1 366/58/1 367/53/1 368/52/1

