# Tiled2Unity generated file. Do not modify by hand.
# Wavefront file for 'Stage_1_2_v3_mesh_0001.obj'

# Vertices (Count = 32)
v -27 -1 0
v -28 -1 0
v -28 0 0
v -27 0 0
v -21 -4 0
v -22 -4 0
v -22 -3 0
v -21 -3 0
v -22 -5 0
v -23 -5 0
v -23 -4 0
v -22 -4 0
v 0 -6 0
v -1 -6 0
v -1 -5 0
v 0 -5 0
v -28 -7 0
v -29 -7 0
v -29 -6 0
v -28 -6 0
v -25 -10 0
v -26 -10 0
v -26 -9 0
v -25 -9 0
v -24 -10 0
v -25 -10 0
v -25 -9 0
v -24 -9 0
v -17 -10 0
v -18 -10 0
v -18 -9 0
v -17 -9 0

# Texture cooridinates (Count = 12)
vt 0.3333333 0
vt 0.4166667 0
vt 0.4166667 0.5
vt 0.3333333 0.5
vt 0.25 0
vt 0.25 0.5
vt 0.08333334 0
vt 0.1666667 0
vt 0.1666667 0.5
vt 0.08333334 0.5
vt 0 0
vt 0 0.5

# Normal
vn 0 0 -1

# Mesh description
g Stage_1_2_v3_mesh_0001

# Faces
f 1/1/1 2/2/1 3/3/1 4/4/1
f 5/1/1 6/2/1 7/3/1 8/4/1
f 9/5/1 10/1/1 11/4/1 12/6/1
f 13/1/1 14/2/1 15/3/1 16/4/1
f 17/1/1 18/2/1 19/3/1 20/4/1
f 21/7/1 22/8/1 23/9/1 24/10/1
f 25/11/1 26/7/1 27/10/1 28/12/1
f 29/1/1 30/2/1 31/3/1 32/4/1

