# Tiled2Unity generated file. Do not modify by hand.
# Wavefront file for 'Stage_1_2_v3_mesh_0005.obj'

# Vertices (Count = 48)
v -4 -7 0
v -5 -7 0
v -5 -6 0
v -4 -6 0
v -3 -7 0
v -4 -7 0
v -4 -6 0
v -3 -6 0
v -4 -8 0
v -5 -8 0
v -5 -7 0
v -4 -7 0
v -3 -8 0
v -4 -8 0
v -4 -7 0
v -3 -7 0
v -27 -9 0
v -28 -9 0
v -28 -8 0
v -27 -8 0
v -26 -9 0
v -27 -9 0
v -27 -8 0
v -26 -8 0
v -10 -9 0
v -11 -9 0
v -11 -8 0
v -10 -8 0
v -9 -9 0
v -10 -9 0
v -10 -8 0
v -9 -8 0
v -27 -10 0
v -28 -10 0
v -28 -9 0
v -27 -9 0
v -26 -10 0
v -27 -10 0
v -27 -9 0
v -26 -9 0
v -10 -10 0
v -11 -10 0
v -11 -9 0
v -10 -9 0
v -9 -10 0
v -10 -10 0
v -10 -9 0
v -9 -9 0

# Texture cooridinates (Count = 18)
vt 0.8333333 0.5
vt 0.9166667 0.5
vt 0.9166667 1
vt 0.8333333 1
vt 0.75 0.5
vt 0.75 1
vt 0.8333333 0
vt 0.9166667 0
vt 0.75 0
vt 0.5833333 0.5
vt 0.6666667 0.5
vt 0.6666667 1
vt 0.5833333 1
vt 0.5 0.5
vt 0.5 1
vt 0.5833333 0
vt 0.6666667 0
vt 0.5 0

# Normal
vn 0 0 -1

# Mesh description
g Stage_1_2_v3_mesh_0005

# Faces
f 1/1/1 2/2/1 3/3/1 4/4/1
f 5/5/1 6/1/1 7/4/1 8/6/1
f 9/7/1 10/8/1 11/2/1 12/1/1
f 13/9/1 14/7/1 15/1/1 16/5/1
f 17/10/1 18/11/1 19/12/1 20/13/1
f 21/14/1 22/10/1 23/13/1 24/15/1
f 25/10/1 26/11/1 27/12/1 28/13/1
f 29/14/1 30/10/1 31/13/1 32/15/1
f 33/16/1 34/17/1 35/11/1 36/10/1
f 37/18/1 38/16/1 39/10/1 40/14/1
f 41/16/1 42/17/1 43/11/1 44/10/1
f 45/18/1 46/16/1 47/10/1 48/14/1

