# Tiled2Unity generated file. Do not modify by hand.
# Wavefront file for 'Stage_1_2_v3_mesh_0004.obj'

# Vertices (Count = 400)
v -26 -1 0
v -27 -1 0
v -27 0 0
v -26 0 0
v -27 -2 0
v -28 -2 0
v -28 -1 0
v -27 -1 0
v -26 -2 0
v -27 -2 0
v -27 -1 0
v -26 -1 0
v -29 -3 0
v -30 -3 0
v -30 -2 0
v -29 -2 0
v -29 -4 0
v -30 -4 0
v -30 -3 0
v -29 -3 0
v -29 -5 0
v -30 -5 0
v -30 -4 0
v -29 -4 0
v -23 -5 0
v -24 -5 0
v -24 -4 0
v -23 -4 0
v -22 -5 0
v -23 -5 0
v -23 -4 0
v -22 -4 0
v -21 -5 0
v -22 -5 0
v -22 -4 0
v -21 -4 0
v -29 -6 0
v -30 -6 0
v -30 -5 0
v -29 -5 0
v -2 -6 0
v -3 -6 0
v -3 -5 0
v -2 -5 0
v -29 -7 0
v -30 -7 0
v -30 -6 0
v -29 -6 0
v -27 -7 0
v -28 -7 0
v -28 -6 0
v -27 -6 0
v -2 -7 0
v -3 -7 0
v -3 -6 0
v -2 -6 0
v -1 -7 0
v -2 -7 0
v -2 -6 0
v -1 -6 0
v 0 -7 0
v -1 -7 0
v -1 -6 0
v 0 -6 0
v -29 -8 0
v -30 -8 0
v -30 -7 0
v -29 -7 0
v -28 -8 0
v -29 -8 0
v -29 -7 0
v -28 -7 0
v -27 -8 0
v -28 -8 0
v -28 -7 0
v -27 -7 0
v -26 -8 0
v -27 -8 0
v -27 -7 0
v -26 -7 0
v -2 -8 0
v -3 -8 0
v -3 -7 0
v -2 -7 0
v -1 -8 0
v -2 -8 0
v -2 -7 0
v -1 -7 0
v 0 -8 0
v -1 -8 0
v -1 -7 0
v 0 -7 0
v -29 -9 0
v -30 -9 0
v -30 -8 0
v -29 -8 0
v -21 -9 0
v -22 -9 0
v -22 -8 0
v -21 -8 0
v -18 -9 0
v -19 -9 0
v -19 -8 0
v -18 -8 0
v -5 -9 0
v -6 -9 0
v -6 -8 0
v -5 -8 0
v -4 -9 0
v -5 -9 0
v -5 -8 0
v -4 -8 0
v -3 -9 0
v -4 -9 0
v -4 -8 0
v -3 -8 0
v -2 -9 0
v -3 -9 0
v -3 -8 0
v -2 -8 0
v -1 -9 0
v -2 -9 0
v -2 -8 0
v -1 -8 0
v 0 -9 0
v -1 -9 0
v -1 -8 0
v 0 -8 0
v -29 -10 0
v -30 -10 0
v -30 -9 0
v -29 -9 0
v -23 -10 0
v -24 -10 0
v -24 -9 0
v -23 -9 0
v -22 -10 0
v -23 -10 0
v -23 -9 0
v -22 -9 0
v -21 -10 0
v -22 -10 0
v -22 -9 0
v -21 -9 0
v -20 -10 0
v -21 -10 0
v -21 -9 0
v -20 -9 0
v -19 -10 0
v -20 -10 0
v -20 -9 0
v -19 -9 0
v -18 -10 0
v -19 -10 0
v -19 -9 0
v -18 -9 0
v -6 -10 0
v -7 -10 0
v -7 -9 0
v -6 -9 0
v -5 -10 0
v -6 -10 0
v -6 -9 0
v -5 -9 0
v -4 -10 0
v -5 -10 0
v -5 -9 0
v -4 -9 0
v -3 -10 0
v -4 -10 0
v -4 -9 0
v -3 -9 0
v -2 -10 0
v -3 -10 0
v -3 -9 0
v -2 -9 0
v -1 -10 0
v -2 -10 0
v -2 -9 0
v -1 -9 0
v 0 -10 0
v -1 -10 0
v -1 -9 0
v 0 -9 0
v -29 -11 0
v -30 -11 0
v -30 -10 0
v -29 -10 0
v -28 -11 0
v -29 -11 0
v -29 -10 0
v -28 -10 0
v -27 -11 0
v -28 -11 0
v -28 -10 0
v -27 -10 0
v -26 -11 0
v -27 -11 0
v -27 -10 0
v -26 -10 0
v -25 -11 0
v -26 -11 0
v -26 -10 0
v -25 -10 0
v -24 -11 0
v -25 -11 0
v -25 -10 0
v -24 -10 0
v -23 -11 0
v -24 -11 0
v -24 -10 0
v -23 -10 0
v -22 -11 0
v -23 -11 0
v -23 -10 0
v -22 -10 0
v -21 -11 0
v -22 -11 0
v -22 -10 0
v -21 -10 0
v -20 -11 0
v -21 -11 0
v -21 -10 0
v -20 -10 0
v -19 -11 0
v -20 -11 0
v -20 -10 0
v -19 -10 0
v -18 -11 0
v -19 -11 0
v -19 -10 0
v -18 -10 0
v -17 -11 0
v -18 -11 0
v -18 -10 0
v -17 -10 0
v -16 -11 0
v -17 -11 0
v -17 -10 0
v -16 -10 0
v -15 -11 0
v -16 -11 0
v -16 -10 0
v -15 -10 0
v -11 -11 0
v -12 -11 0
v -12 -10 0
v -11 -10 0
v -10 -11 0
v -11 -11 0
v -11 -10 0
v -10 -10 0
v -9 -11 0
v -10 -11 0
v -10 -10 0
v -9 -10 0
v -8 -11 0
v -9 -11 0
v -9 -10 0
v -8 -10 0
v -7 -11 0
v -8 -11 0
v -8 -10 0
v -7 -10 0
v -6 -11 0
v -7 -11 0
v -7 -10 0
v -6 -10 0
v -5 -11 0
v -6 -11 0
v -6 -10 0
v -5 -10 0
v -4 -11 0
v -5 -11 0
v -5 -10 0
v -4 -10 0
v -3 -11 0
v -4 -11 0
v -4 -10 0
v -3 -10 0
v -2 -11 0
v -3 -11 0
v -3 -10 0
v -2 -10 0
v -1 -11 0
v -2 -11 0
v -2 -10 0
v -1 -10 0
v 0 -11 0
v -1 -11 0
v -1 -10 0
v 0 -10 0
v -29 -12 0
v -30 -12 0
v -30 -11 0
v -29 -11 0
v -28 -12 0
v -29 -12 0
v -29 -11 0
v -28 -11 0
v -27 -12 0
v -28 -12 0
v -28 -11 0
v -27 -11 0
v -26 -12 0
v -27 -12 0
v -27 -11 0
v -26 -11 0
v -25 -12 0
v -26 -12 0
v -26 -11 0
v -25 -11 0
v -24 -12 0
v -25 -12 0
v -25 -11 0
v -24 -11 0
v -23 -12 0
v -24 -12 0
v -24 -11 0
v -23 -11 0
v -22 -12 0
v -23 -12 0
v -23 -11 0
v -22 -11 0
v -21 -12 0
v -22 -12 0
v -22 -11 0
v -21 -11 0
v -20 -12 0
v -21 -12 0
v -21 -11 0
v -20 -11 0
v -19 -12 0
v -20 -12 0
v -20 -11 0
v -19 -11 0
v -18 -12 0
v -19 -12 0
v -19 -11 0
v -18 -11 0
v -17 -12 0
v -18 -12 0
v -18 -11 0
v -17 -11 0
v -16 -12 0
v -17 -12 0
v -17 -11 0
v -16 -11 0
v -15 -12 0
v -16 -12 0
v -16 -11 0
v -15 -11 0
v -11 -12 0
v -12 -12 0
v -12 -11 0
v -11 -11 0
v -10 -12 0
v -11 -12 0
v -11 -11 0
v -10 -11 0
v -9 -12 0
v -10 -12 0
v -10 -11 0
v -9 -11 0
v -8 -12 0
v -9 -12 0
v -9 -11 0
v -8 -11 0
v -7 -12 0
v -8 -12 0
v -8 -11 0
v -7 -11 0
v -6 -12 0
v -7 -12 0
v -7 -11 0
v -6 -11 0
v -5 -12 0
v -6 -12 0
v -6 -11 0
v -5 -11 0
v -4 -12 0
v -5 -12 0
v -5 -11 0
v -4 -11 0
v -3 -12 0
v -4 -12 0
v -4 -11 0
v -3 -11 0
v -2 -12 0
v -3 -12 0
v -3 -11 0
v -2 -11 0
v -1 -12 0
v -2 -12 0
v -2 -11 0
v -1 -11 0
v 0 -12 0
v -1 -12 0
v -1 -11 0
v 0 -11 0

# Texture cooridinates (Count = 67)
vt 0.475 0.6666666
vt 0.5 0.6666666
vt 0.5 0.75
vt 0.475 0.75
vt 0.575 0.6666666
vt 0.6 0.6666666
vt 0.6 0.75
vt 0.575 0.75
vt 0.625 0.6666666
vt 0.625 0.75
vt 0.85 0.6666666
vt 0.875 0.6666666
vt 0.875 0.75
vt 0.85 0.75
vt 0.825 0.5
vt 0.85 0.5
vt 0.85 0.5833334
vt 0.825 0.5833334
vt 0.75 0.5833334
vt 0.775 0.5833334
vt 0.775 0.6666666
vt 0.75 0.6666666
vt 0.725 0.5833334
vt 0.725 0.6666666
vt 0.7 0.5833334
vt 0.7 0.6666666
vt 0.45 0.6666666
vt 0.45 0.75
vt 0.9 0.6666666
vt 0.925 0.6666666
vt 0.925 0.75
vt 0.9 0.75
vt 0.3 0.6666666
vt 0.325 0.6666666
vt 0.325 0.75
vt 0.3 0.75
vt 0.425 0.1666667
vt 0.45 0.1666667
vt 0.45 0.25
vt 0.425 0.25
vt 0.45 0.5833334
vt 0.475 0.5833334
vt 0.4 0.5833334
vt 0.425 0.5833334
vt 0.425 0.6666666
vt 0.4 0.6666666
vt 0.325 0.5833334
vt 0.35 0.5833334
vt 0.35 0.6666666
vt 0.3 0.1666667
vt 0.325 0.1666667
vt 0.325 0.25
vt 0.3 0.25
vt 0.425 0.5
vt 0.45 0.5
vt 0.875 0.8333333
vt 0.85 0.8333333
vt 0.9 0.5833334
vt 0.925 0.5833334
vt 0.9 0.5
vt 0.925 0.5
vt 0.5 0.5833334
vt 0.875 0.5
vt 0.875 0.5833334
vt 0.3 0.5833334
vt 0.95 0.5
vt 0.95 0.5833334

# Normal
vn 0 0 -1

# Mesh description
g Stage_1_2_v3_mesh_0004

# Faces
f 1/1/1 2/2/1 3/3/1 4/4/1
f 5/5/1 6/6/1 7/7/1 8/8/1
f 9/6/1 10/9/1 11/10/1 12/7/1
f 13/11/1 14/12/1 15/13/1 16/14/1
f 17/15/1 18/16/1 19/17/1 20/18/1
f 21/15/1 22/16/1 23/17/1 24/18/1
f 25/19/1 26/20/1 27/21/1 28/22/1
f 29/23/1 30/19/1 31/22/1 32/24/1
f 33/25/1 34/23/1 35/24/1 36/26/1
f 37/15/1 38/16/1 39/17/1 40/18/1
f 41/27/1 42/1/1 43/4/1 44/28/1
f 45/15/1 46/16/1 47/17/1 48/18/1
f 49/27/1 50/1/1 51/4/1 52/28/1
f 53/29/1 54/30/1 55/31/1 56/32/1
f 57/33/1 58/34/1 59/35/1 60/36/1
f 61/33/1 62/34/1 63/35/1 64/36/1
f 65/37/1 66/38/1 67/39/1 68/40/1
f 69/41/1 70/42/1 71/1/1 72/27/1
f 73/41/1 74/42/1 75/1/1 76/27/1
f 77/43/1 78/44/1 79/45/1 80/46/1
f 81/47/1 82/48/1 83/49/1 84/34/1
f 85/50/1 86/51/1 87/52/1 88/53/1
f 89/50/1 90/51/1 91/52/1 92/53/1
f 93/54/1 94/55/1 95/41/1 96/44/1
f 97/27/1 98/1/1 99/4/1 100/28/1
f 101/14/1 102/13/1 103/56/1 104/57/1
f 105/1/1 106/2/1 107/3/1 108/4/1
f 109/29/1 110/30/1 111/31/1 112/32/1
f 113/12/1 114/29/1 115/32/1 116/13/1
f 117/58/1 118/59/1 119/30/1 120/29/1
f 121/50/1 122/51/1 123/52/1 124/53/1
f 125/50/1 126/51/1 127/52/1 128/53/1
f 129/54/1 130/55/1 131/41/1 132/44/1
f 133/29/1 134/30/1 135/31/1 136/32/1
f 137/12/1 138/29/1 139/32/1 140/13/1
f 141/41/1 142/42/1 143/1/1 144/27/1
f 145/41/1 146/42/1 147/1/1 148/27/1
f 149/44/1 150/41/1 151/27/1 152/45/1
f 153/11/1 154/12/1 155/13/1 156/14/1
f 157/29/1 158/30/1 159/31/1 160/32/1
f 161/12/1 162/29/1 163/32/1 164/13/1
f 165/58/1 166/59/1 167/30/1 168/29/1
f 169/50/1 170/51/1 171/52/1 172/53/1
f 173/60/1 174/61/1 175/59/1 176/58/1
f 177/60/1 178/61/1 179/59/1 180/58/1
f 181/50/1 182/51/1 183/52/1 184/53/1
f 185/37/1 186/38/1 187/39/1 188/40/1
f 189/42/1 190/62/1 191/2/1 192/1/1
f 193/41/1 194/42/1 195/1/1 196/27/1
f 197/42/1 198/62/1 199/2/1 200/1/1
f 201/41/1 202/42/1 203/1/1 204/27/1
f 205/44/1 206/41/1 207/27/1 208/45/1
f 209/58/1 210/59/1 211/30/1 212/29/1
f 213/60/1 214/61/1 215/59/1 216/58/1
f 217/63/1 218/60/1 219/58/1 220/64/1
f 221/64/1 222/58/1 223/29/1 224/12/1
f 225/64/1 226/58/1 227/29/1 228/12/1
f 229/17/1 230/64/1 231/12/1 232/11/1
f 233/33/1 234/34/1 235/35/1 236/36/1
f 237/33/1 238/34/1 239/35/1 240/36/1
f 241/11/1 242/12/1 243/13/1 244/14/1
f 245/29/1 246/30/1 247/31/1 248/32/1
f 249/33/1 250/34/1 251/35/1 252/36/1
f 253/33/1 254/34/1 255/35/1 256/36/1
f 257/33/1 258/34/1 259/35/1 260/36/1
f 261/33/1 262/34/1 263/35/1 264/36/1
f 265/58/1 266/59/1 267/30/1 268/29/1
f 269/50/1 270/51/1 271/52/1 272/53/1
f 273/60/1 274/61/1 275/59/1 276/58/1
f 277/50/1 278/51/1 279/52/1 280/53/1
f 281/50/1 282/51/1 283/52/1 284/53/1
f 285/50/1 286/51/1 287/52/1 288/53/1
f 289/50/1 290/51/1 291/52/1 292/53/1
f 293/65/1 294/47/1 295/34/1 296/33/1
f 297/65/1 298/47/1 299/34/1 300/33/1
f 301/65/1 302/47/1 303/34/1 304/33/1
f 305/65/1 306/47/1 307/34/1 308/33/1
f 309/65/1 310/47/1 311/34/1 312/33/1
f 313/65/1 314/47/1 315/34/1 316/33/1
f 317/65/1 318/47/1 319/34/1 320/33/1
f 321/65/1 322/47/1 323/34/1 324/33/1
f 325/65/1 326/47/1 327/34/1 328/33/1
f 329/65/1 330/47/1 331/34/1 332/33/1
f 333/65/1 334/47/1 335/34/1 336/33/1
f 337/65/1 338/47/1 339/34/1 340/33/1
f 341/65/1 342/47/1 343/34/1 344/33/1
f 345/65/1 346/47/1 347/34/1 348/33/1
f 349/54/1 350/55/1 351/41/1 352/44/1
f 353/61/1 354/66/1 355/67/1 356/59/1
f 357/65/1 358/47/1 359/34/1 360/33/1
f 361/65/1 362/47/1 363/34/1 364/33/1
f 365/65/1 366/47/1 367/34/1 368/33/1
f 369/65/1 370/47/1 371/34/1 372/33/1
f 373/65/1 374/47/1 375/34/1 376/33/1
f 377/65/1 378/47/1 379/34/1 380/33/1
f 381/65/1 382/47/1 383/34/1 384/33/1
f 385/65/1 386/47/1 387/34/1 388/33/1
f 389/65/1 390/47/1 391/34/1 392/33/1
f 393/65/1 394/47/1 395/34/1 396/33/1
f 397/65/1 398/47/1 399/34/1 400/33/1

