# Tiled2Unity generated file. Do not modify by hand.
# Wavefront file for 'Stage_1_2_v3_mesh_0002.obj'

# Vertices (Count = 212)
v -20 -3 0
v -21 -3 0
v -21 -2 0
v -20 -2 0
v -19 -3 0
v -20 -3 0
v -20 -2 0
v -19 -2 0
v -18 -3 0
v -19 -3 0
v -19 -2 0
v -18 -2 0
v -17 -3 0
v -18 -3 0
v -18 -2 0
v -17 -2 0
v -20 -4 0
v -21 -4 0
v -21 -3 0
v -20 -3 0
v -19 -4 0
v -20 -4 0
v -20 -3 0
v -19 -3 0
v -18 -4 0
v -19 -4 0
v -19 -3 0
v -18 -3 0
v -17 -4 0
v -18 -4 0
v -18 -3 0
v -17 -3 0
v -20 -5 0
v -21 -5 0
v -21 -4 0
v -20 -4 0
v -19 -5 0
v -20 -5 0
v -20 -4 0
v -19 -4 0
v -18 -5 0
v -19 -5 0
v -19 -4 0
v -18 -4 0
v -17 -5 0
v -18 -5 0
v -18 -4 0
v -17 -4 0
v -16 -5 0
v -17 -5 0
v -17 -4 0
v -16 -4 0
v -15 -5 0
v -16 -5 0
v -16 -4 0
v -15 -4 0
v -14 -5 0
v -15 -5 0
v -15 -4 0
v -14 -4 0
v -13 -5 0
v -14 -5 0
v -14 -4 0
v -13 -4 0
v -20 -6 0
v -21 -6 0
v -21 -5 0
v -20 -5 0
v -19 -6 0
v -20 -6 0
v -20 -5 0
v -19 -5 0
v -18 -6 0
v -19 -6 0
v -19 -5 0
v -18 -5 0
v -17 -6 0
v -18 -6 0
v -18 -5 0
v -17 -5 0
v -16 -6 0
v -17 -6 0
v -17 -5 0
v -16 -5 0
v -15 -6 0
v -16 -6 0
v -16 -5 0
v -15 -5 0
v -14 -6 0
v -15 -6 0
v -15 -5 0
v -14 -5 0
v -13 -6 0
v -14 -6 0
v -14 -5 0
v -13 -5 0
v -20 -7 0
v -21 -7 0
v -21 -6 0
v -20 -6 0
v -19 -7 0
v -20 -7 0
v -20 -6 0
v -19 -6 0
v -18 -7 0
v -19 -7 0
v -19 -6 0
v -18 -6 0
v -17 -7 0
v -18 -7 0
v -18 -6 0
v -17 -6 0
v -16 -7 0
v -17 -7 0
v -17 -6 0
v -16 -6 0
v -15 -7 0
v -16 -7 0
v -16 -6 0
v -15 -6 0
v -14 -7 0
v -15 -7 0
v -15 -6 0
v -14 -6 0
v -13 -7 0
v -14 -7 0
v -14 -6 0
v -13 -6 0
v -20 -8 0
v -21 -8 0
v -21 -7 0
v -20 -7 0
v -19 -8 0
v -20 -8 0
v -20 -7 0
v -19 -7 0
v -18 -8 0
v -19 -8 0
v -19 -7 0
v -18 -7 0
v -17 -8 0
v -18 -8 0
v -18 -7 0
v -17 -7 0
v -16 -8 0
v -17 -8 0
v -17 -7 0
v -16 -7 0
v -15 -8 0
v -16 -8 0
v -16 -7 0
v -15 -7 0
v -14 -8 0
v -15 -8 0
v -15 -7 0
v -14 -7 0
v -13 -8 0
v -14 -8 0
v -14 -7 0
v -13 -7 0
v -21 -9 0
v -22 -9 0
v -22 -8 0
v -21 -8 0
v -20 -9 0
v -21 -9 0
v -21 -8 0
v -20 -8 0
v -19 -9 0
v -20 -9 0
v -20 -8 0
v -19 -8 0
v -18 -9 0
v -19 -9 0
v -19 -8 0
v -18 -8 0
v -17 -9 0
v -18 -9 0
v -18 -8 0
v -17 -8 0
v -16 -9 0
v -17 -9 0
v -17 -8 0
v -16 -8 0
v -15 -9 0
v -16 -9 0
v -16 -8 0
v -15 -8 0
v -14 -9 0
v -15 -9 0
v -15 -8 0
v -14 -8 0
v -13 -9 0
v -14 -9 0
v -14 -8 0
v -13 -8 0
v -16 -10 0
v -17 -10 0
v -17 -9 0
v -16 -9 0
v -15 -10 0
v -16 -10 0
v -16 -9 0
v -15 -9 0
v -14 -10 0
v -15 -10 0
v -15 -9 0
v -14 -9 0
v -13 -10 0
v -14 -10 0
v -14 -9 0
v -13 -9 0

# Texture cooridinates (Count = 80)
vt 0.3714286 0.8571429
vt 0.4 0.8571429
vt 0.4 1
vt 0.3714286 1
vt 0.3428572 0.8571429
vt 0.3428572 1
vt 0.3142857 0.8571429
vt 0.3142857 1
vt 0.2857143 0.8571429
vt 0.2857143 1
vt 0.3714286 0.7142857
vt 0.4 0.7142857
vt 0.3428572 0.7142857
vt 0.3142857 0.7142857
vt 0.2857143 0.7142857
vt 0.3714286 0.5714285
vt 0.4 0.5714285
vt 0.3428572 0.5714285
vt 0.3142857 0.5714285
vt 0.5428572 0.7142857
vt 0.5714286 0.7142857
vt 0.5714286 0.8571429
vt 0.5428572 0.8571429
vt 0.5142857 0.7142857
vt 0.5142857 0.8571429
vt 0.4857143 0.7142857
vt 0.4857143 0.8571429
vt 0.4571429 0.7142857
vt 0.4571429 0.8571429
vt 0.4285714 0.7142857
vt 0.4285714 0.8571429
vt 0.3714286 0.4285714
vt 0.4 0.4285714
vt 0.3428572 0.4285714
vt 0.3142857 0.4285714
vt 0.5428572 0.5714285
vt 0.5714286 0.5714285
vt 0.5142857 0.5714285
vt 0.4857143 0.5714285
vt 0.4571429 0.5714285
vt 0.4285714 0.5714285
vt 0.3714286 0.2857143
vt 0.4 0.2857143
vt 0.3428572 0.2857143
vt 0.3142857 0.2857143
vt 0.5428572 0.4285714
vt 0.5714286 0.4285714
vt 0.5142857 0.4285714
vt 0.4857143 0.4285714
vt 0.4571429 0.4285714
vt 0.4285714 0.4285714
vt 0.3714286 0.1428571
vt 0.4 0.1428571
vt 0.3428572 0.1428571
vt 0.3142857 0.1428571
vt 0.5428572 0.2857143
vt 0.5714286 0.2857143
vt 0.5142857 0.2857143
vt 0.4857143 0.2857143
vt 0.4571429 0.2857143
vt 0.4285714 0.2857143
vt 0.6857143 0
vt 0.7142857 0
vt 0.7142857 0.1428571
vt 0.6857143 0.1428571
vt 0.3714286 0
vt 0.4 0
vt 0.3428572 0
vt 0.3142857 0
vt 0.5428572 0.1428571
vt 0.5714286 0.1428571
vt 0.5142857 0.1428571
vt 0.4857143 0.1428571
vt 0.4571429 0.1428571
vt 0.4285714 0.1428571
vt 0.5142857 0
vt 0.5428572 0
vt 0.4857143 0
vt 0.4571429 0
vt 0.4285714 0

# Normal
vn 0 0 -1

# Mesh description
g Stage_1_2_v3_mesh_0002

# Faces
f 1/1/1 2/2/1 3/3/1 4/4/1
f 5/5/1 6/1/1 7/4/1 8/6/1
f 9/7/1 10/5/1 11/6/1 12/8/1
f 13/9/1 14/7/1 15/8/1 16/10/1
f 17/11/1 18/12/1 19/2/1 20/1/1
f 21/13/1 22/11/1 23/1/1 24/5/1
f 25/14/1 26/13/1 27/5/1 28/7/1
f 29/15/1 30/14/1 31/7/1 32/9/1
f 33/16/1 34/17/1 35/12/1 36/11/1
f 37/18/1 38/16/1 39/11/1 40/13/1
f 41/19/1 42/18/1 43/13/1 44/14/1
f 45/20/1 46/21/1 47/22/1 48/23/1
f 49/24/1 50/20/1 51/23/1 52/25/1
f 53/26/1 54/24/1 55/25/1 56/27/1
f 57/28/1 58/26/1 59/27/1 60/29/1
f 61/30/1 62/28/1 63/29/1 64/31/1
f 65/32/1 66/33/1 67/17/1 68/16/1
f 69/34/1 70/32/1 71/16/1 72/18/1
f 73/35/1 74/34/1 75/18/1 76/19/1
f 77/36/1 78/37/1 79/21/1 80/20/1
f 81/38/1 82/36/1 83/20/1 84/24/1
f 85/39/1 86/38/1 87/24/1 88/26/1
f 89/40/1 90/39/1 91/26/1 92/28/1
f 93/41/1 94/40/1 95/28/1 96/30/1
f 97/42/1 98/43/1 99/33/1 100/32/1
f 101/44/1 102/42/1 103/32/1 104/34/1
f 105/45/1 106/44/1 107/34/1 108/35/1
f 109/46/1 110/47/1 111/37/1 112/36/1
f 113/48/1 114/46/1 115/36/1 116/38/1
f 117/49/1 118/48/1 119/38/1 120/39/1
f 121/50/1 122/49/1 123/39/1 124/40/1
f 125/51/1 126/50/1 127/40/1 128/41/1
f 129/52/1 130/53/1 131/43/1 132/42/1
f 133/54/1 134/52/1 135/42/1 136/44/1
f 137/55/1 138/54/1 139/44/1 140/45/1
f 141/56/1 142/57/1 143/47/1 144/46/1
f 145/58/1 146/56/1 147/46/1 148/48/1
f 149/59/1 150/58/1 151/48/1 152/49/1
f 153/60/1 154/59/1 155/49/1 156/50/1
f 157/61/1 158/60/1 159/50/1 160/51/1
f 161/62/1 162/63/1 163/64/1 164/65/1
f 165/66/1 166/67/1 167/53/1 168/52/1
f 169/68/1 170/66/1 171/52/1 172/54/1
f 173/69/1 174/68/1 175/54/1 176/55/1
f 177/70/1 178/71/1 179/57/1 180/56/1
f 181/72/1 182/70/1 183/56/1 184/58/1
f 185/73/1 186/72/1 187/58/1 188/59/1
f 189/74/1 190/73/1 191/59/1 192/60/1
f 193/75/1 194/74/1 195/60/1 196/61/1
f 197/76/1 198/77/1 199/70/1 200/72/1
f 201/78/1 202/76/1 203/72/1 204/73/1
f 205/79/1 206/78/1 207/73/1 208/74/1
f 209/80/1 210/79/1 211/74/1 212/75/1

