# Tiled2Unity generated file. Do not modify by hand.
# Wavefront file for 'Stage_1_6_v3_mesh_0002.obj'

# Vertices (Count = 504)
v -29 -1 0
v -30 -1 0
v -30 0 0
v -29 0 0
v -28 -1 0
v -29 -1 0
v -29 0 0
v -28 0 0
v -20 -1 0
v -21 -1 0
v -21 0 0
v -20 0 0
v -19 -1 0
v -20 -1 0
v -20 0 0
v -19 0 0
v -18 -1 0
v -19 -1 0
v -19 0 0
v -18 0 0
v -17 -1 0
v -18 -1 0
v -18 0 0
v -17 0 0
v -16 -1 0
v -17 -1 0
v -17 0 0
v -16 0 0
v -15 -1 0
v -16 -1 0
v -16 0 0
v -15 0 0
v -14 -1 0
v -15 -1 0
v -15 0 0
v -14 0 0
v -13 -1 0
v -14 -1 0
v -14 0 0
v -13 0 0
v -12 -1 0
v -13 -1 0
v -13 0 0
v -12 0 0
v -11 -1 0
v -12 -1 0
v -12 0 0
v -11 0 0
v -10 -1 0
v -11 -1 0
v -11 0 0
v -10 0 0
v -9 -1 0
v -10 -1 0
v -10 0 0
v -9 0 0
v -8 -1 0
v -9 -1 0
v -9 0 0
v -8 0 0
v -7 -1 0
v -8 -1 0
v -8 0 0
v -7 0 0
v -6 -1 0
v -7 -1 0
v -7 0 0
v -6 0 0
v -5 -1 0
v -6 -1 0
v -6 0 0
v -5 0 0
v -4 -1 0
v -5 -1 0
v -5 0 0
v -4 0 0
v -3 -1 0
v -4 -1 0
v -4 0 0
v -3 0 0
v -2 -1 0
v -3 -1 0
v -3 0 0
v -2 0 0
v -1 -1 0
v -2 -1 0
v -2 0 0
v -1 0 0
v 0 -1 0
v -1 -1 0
v -1 0 0
v 0 0 0
v -29 -2 0
v -30 -2 0
v -30 -1 0
v -29 -1 0
v -11 -2 0
v -12 -2 0
v -12 -1 0
v -11 -1 0
v -10 -2 0
v -11 -2 0
v -11 -1 0
v -10 -1 0
v -9 -2 0
v -10 -2 0
v -10 -1 0
v -9 -1 0
v -8 -2 0
v -9 -2 0
v -9 -1 0
v -8 -1 0
v -7 -2 0
v -8 -2 0
v -8 -1 0
v -7 -1 0
v -6 -2 0
v -7 -2 0
v -7 -1 0
v -6 -1 0
v -5 -2 0
v -6 -2 0
v -6 -1 0
v -5 -1 0
v -29 -3 0
v -30 -3 0
v -30 -2 0
v -29 -2 0
v -26 -3 0
v -27 -3 0
v -27 -2 0
v -26 -2 0
v -10 -3 0
v -11 -3 0
v -11 -2 0
v -10 -2 0
v -9 -3 0
v -10 -3 0
v -10 -2 0
v -9 -2 0
v -8 -3 0
v -9 -3 0
v -9 -2 0
v -8 -2 0
v -7 -3 0
v -8 -3 0
v -8 -2 0
v -7 -2 0
v -6 -3 0
v -7 -3 0
v -7 -2 0
v -6 -2 0
v -29 -4 0
v -30 -4 0
v -30 -3 0
v -29 -3 0
v -29 -5 0
v -30 -5 0
v -30 -4 0
v -29 -4 0
v -28 -5 0
v -29 -5 0
v -29 -4 0
v -28 -4 0
v -27 -5 0
v -28 -5 0
v -28 -4 0
v -27 -4 0
v -23 -5 0
v -24 -5 0
v -24 -4 0
v -23 -4 0
v -22 -5 0
v -23 -5 0
v -23 -4 0
v -22 -4 0
v -21 -5 0
v -22 -5 0
v -22 -4 0
v -21 -4 0
v -29 -6 0
v -30 -6 0
v -30 -5 0
v -29 -5 0
v -28 -6 0
v -29 -6 0
v -29 -5 0
v -28 -5 0
v -27 -6 0
v -28 -6 0
v -28 -5 0
v -27 -5 0
v -2 -6 0
v -3 -6 0
v -3 -5 0
v -2 -5 0
v -1 -6 0
v -2 -6 0
v -2 -5 0
v -1 -5 0
v 0 -6 0
v -1 -6 0
v -1 -5 0
v 0 -5 0
v -29 -7 0
v -30 -7 0
v -30 -6 0
v -29 -6 0
v -28 -7 0
v -29 -7 0
v -29 -6 0
v -28 -6 0
v -27 -7 0
v -28 -7 0
v -28 -6 0
v -27 -6 0
v -3 -7 0
v -4 -7 0
v -4 -6 0
v -3 -6 0
v -2 -7 0
v -3 -7 0
v -3 -6 0
v -2 -6 0
v -1 -7 0
v -2 -7 0
v -2 -6 0
v -1 -6 0
v 0 -7 0
v -1 -7 0
v -1 -6 0
v 0 -6 0
v -29 -8 0
v -30 -8 0
v -30 -7 0
v -29 -7 0
v -28 -8 0
v -29 -8 0
v -29 -7 0
v -28 -7 0
v -27 -8 0
v -28 -8 0
v -28 -7 0
v -27 -7 0
v -26 -8 0
v -27 -8 0
v -27 -7 0
v -26 -7 0
v -14 -8 0
v -15 -8 0
v -15 -7 0
v -14 -7 0
v -13 -8 0
v -14 -8 0
v -14 -7 0
v -13 -7 0
v -12 -8 0
v -13 -8 0
v -13 -7 0
v -12 -7 0
v -11 -8 0
v -12 -8 0
v -12 -7 0
v -11 -7 0
v -3 -8 0
v -4 -8 0
v -4 -7 0
v -3 -7 0
v -2 -8 0
v -3 -8 0
v -3 -7 0
v -2 -7 0
v -1 -8 0
v -2 -8 0
v -2 -7 0
v -1 -7 0
v 0 -8 0
v -1 -8 0
v -1 -7 0
v 0 -7 0
v -29 -9 0
v -30 -9 0
v -30 -8 0
v -29 -8 0
v -28 -9 0
v -29 -9 0
v -29 -8 0
v -28 -8 0
v -27 -9 0
v -28 -9 0
v -28 -8 0
v -27 -8 0
v -26 -9 0
v -27 -9 0
v -27 -8 0
v -26 -8 0
v -22 -9 0
v -23 -9 0
v -23 -8 0
v -22 -8 0
v -21 -9 0
v -22 -9 0
v -22 -8 0
v -21 -8 0
v -20 -9 0
v -21 -9 0
v -21 -8 0
v -20 -8 0
v -14 -9 0
v -15 -9 0
v -15 -8 0
v -14 -8 0
v -13 -9 0
v -14 -9 0
v -14 -8 0
v -13 -8 0
v -12 -9 0
v -13 -9 0
v -13 -8 0
v -12 -8 0
v -11 -9 0
v -12 -9 0
v -12 -8 0
v -11 -8 0
v -3 -9 0
v -4 -9 0
v -4 -8 0
v -3 -8 0
v -2 -9 0
v -3 -9 0
v -3 -8 0
v -2 -8 0
v -1 -9 0
v -2 -9 0
v -2 -8 0
v -1 -8 0
v 0 -9 0
v -1 -9 0
v -1 -8 0
v 0 -8 0
v -29 -10 0
v -30 -10 0
v -30 -9 0
v -29 -9 0
v -28 -10 0
v -29 -10 0
v -29 -9 0
v -28 -9 0
v -27 -10 0
v -28 -10 0
v -28 -9 0
v -27 -9 0
v -26 -10 0
v -27 -10 0
v -27 -9 0
v -26 -9 0
v -25 -10 0
v -26 -10 0
v -26 -9 0
v -25 -9 0
v -14 -10 0
v -15 -10 0
v -15 -9 0
v -14 -9 0
v -13 -10 0
v -14 -10 0
v -14 -9 0
v -13 -9 0
v -12 -10 0
v -13 -10 0
v -13 -9 0
v -12 -9 0
v -11 -10 0
v -12 -10 0
v -12 -9 0
v -11 -9 0
v -3 -10 0
v -4 -10 0
v -4 -9 0
v -3 -9 0
v -2 -10 0
v -3 -10 0
v -3 -9 0
v -2 -9 0
v -1 -10 0
v -2 -10 0
v -2 -9 0
v -1 -9 0
v 0 -10 0
v -1 -10 0
v -1 -9 0
v 0 -9 0
v -29 -11 0
v -30 -11 0
v -30 -10 0
v -29 -10 0
v -28 -11 0
v -29 -11 0
v -29 -10 0
v -28 -10 0
v -27 -11 0
v -28 -11 0
v -28 -10 0
v -27 -10 0
v -26 -11 0
v -27 -11 0
v -27 -10 0
v -26 -10 0
v -25 -11 0
v -26 -11 0
v -26 -10 0
v -25 -10 0
v -14 -11 0
v -15 -11 0
v -15 -10 0
v -14 -10 0
v -13 -11 0
v -14 -11 0
v -14 -10 0
v -13 -10 0
v -12 -11 0
v -13 -11 0
v -13 -10 0
v -12 -10 0
v -11 -11 0
v -12 -11 0
v -12 -10 0
v -11 -10 0
v -3 -11 0
v -4 -11 0
v -4 -10 0
v -3 -10 0
v -2 -11 0
v -3 -11 0
v -3 -10 0
v -2 -10 0
v -1 -11 0
v -2 -11 0
v -2 -10 0
v -1 -10 0
v 0 -11 0
v -1 -11 0
v -1 -10 0
v 0 -10 0
v -29 -12 0
v -30 -12 0
v -30 -11 0
v -29 -11 0
v -28 -12 0
v -29 -12 0
v -29 -11 0
v -28 -11 0
v -27 -12 0
v -28 -12 0
v -28 -11 0
v -27 -11 0
v -26 -12 0
v -27 -12 0
v -27 -11 0
v -26 -11 0
v -25 -12 0
v -26 -12 0
v -26 -11 0
v -25 -11 0
v -24 -12 0
v -25 -12 0
v -25 -11 0
v -24 -11 0
v -23 -12 0
v -24 -12 0
v -24 -11 0
v -23 -11 0
v -14 -12 0
v -15 -12 0
v -15 -11 0
v -14 -11 0
v -13 -12 0
v -14 -12 0
v -14 -11 0
v -13 -11 0
v -12 -12 0
v -13 -12 0
v -13 -11 0
v -12 -11 0
v -11 -12 0
v -12 -12 0
v -12 -11 0
v -11 -11 0
v -3 -12 0
v -4 -12 0
v -4 -11 0
v -3 -11 0
v -2 -12 0
v -3 -12 0
v -3 -11 0
v -2 -11 0
v -1 -12 0
v -2 -12 0
v -2 -11 0
v -1 -11 0
v 0 -12 0
v -1 -12 0
v -1 -11 0
v 0 -11 0

# Texture cooridinates (Count = 56)
vt 0.85 0.4166667
vt 0.875 0.4166667
vt 0.875 0.5
vt 0.85 0.5
vt 0.85 0.3333333
vt 0.875 0.3333333
vt 0.925 0.4166667
vt 0.95 0.4166667
vt 0.95 0.5
vt 0.925 0.5
vt 0.9 0.3333333
vt 0.9 0.4166667
vt 0.9 0.5
vt 0.425 0.5
vt 0.45 0.5
vt 0.45 0.5833334
vt 0.425 0.5833334
vt 0.725 0.75
vt 0.75 0.75
vt 0.75 0.8333333
vt 0.725 0.8333333
vt 0.925 0.3333333
vt 0.85 0.5833334
vt 0.875 0.5833334
vt 0.875 0.6666666
vt 0.85 0.6666666
vt 0.775 0.4166667
vt 0.8 0.4166667
vt 0.8 0.5
vt 0.775 0.5
vt 0.825 0.5833334
vt 0.825 0.6666666
vt 0.75 0.5833334
vt 0.775 0.5833334
vt 0.775 0.6666666
vt 0.75 0.6666666
vt 0.725 0.5833334
vt 0.725 0.6666666
vt 0.7 0.5833334
vt 0.7 0.6666666
vt 0.175 0.1666667
vt 0.2 0.1666667
vt 0.2 0.25
vt 0.175 0.25
vt 0.9 0.6666666
vt 0.925 0.6666666
vt 0.925 0.75
vt 0.9 0.75
vt 0.875 0.75
vt 0.925 0.5833334
vt 0.95 0.5833334
vt 0.95 0.6666666
vt 0.9 0.5833334
vt 0.825 0.5
vt 0.75 0.4166667
vt 0.75 0.5

# Normal
vn 0 0 -1

# Mesh description
g Stage_1_6_v3_mesh_0002

# Faces
f 1/1/1 2/2/1 3/3/1 4/4/1
f 5/5/1 6/6/1 7/2/1 8/1/1
f 9/7/1 10/8/1 11/9/1 12/10/1
f 13/6/1 14/11/1 15/12/1 16/2/1
f 17/6/1 18/11/1 19/12/1 20/2/1
f 21/6/1 22/11/1 23/12/1 24/2/1
f 25/6/1 26/11/1 27/12/1 28/2/1
f 29/6/1 30/11/1 31/12/1 32/2/1
f 33/6/1 34/11/1 35/12/1 36/2/1
f 37/6/1 38/11/1 39/12/1 40/2/1
f 41/6/1 42/11/1 43/12/1 44/2/1
f 45/12/1 46/7/1 47/10/1 48/13/1
f 49/2/1 50/12/1 51/13/1 52/3/1
f 53/2/1 54/12/1 55/13/1 56/3/1
f 57/2/1 58/12/1 59/13/1 60/3/1
f 61/2/1 62/12/1 63/13/1 64/3/1
f 65/2/1 66/12/1 67/13/1 68/3/1
f 69/1/1 70/2/1 71/3/1 72/4/1
f 73/6/1 74/11/1 75/12/1 76/2/1
f 77/6/1 78/11/1 79/12/1 80/2/1
f 81/6/1 82/11/1 83/12/1 84/2/1
f 85/6/1 86/11/1 87/12/1 88/2/1
f 89/6/1 90/11/1 91/12/1 92/2/1
f 93/14/1 94/15/1 95/16/1 96/17/1
f 97/7/1 98/8/1 99/9/1 100/10/1
f 101/12/1 102/7/1 103/10/1 104/13/1
f 105/2/1 106/12/1 107/13/1 108/3/1
f 109/2/1 110/12/1 111/13/1 112/3/1
f 113/2/1 114/12/1 115/13/1 116/3/1
f 117/1/1 118/2/1 119/3/1 120/4/1
f 121/5/1 122/6/1 123/2/1 124/1/1
f 125/14/1 126/15/1 127/16/1 128/17/1
f 129/18/1 130/19/1 131/20/1 132/21/1
f 133/11/1 134/22/1 135/7/1 136/12/1
f 137/6/1 138/11/1 139/12/1 140/2/1
f 141/6/1 142/11/1 143/12/1 144/2/1
f 145/6/1 146/11/1 147/12/1 148/2/1
f 149/5/1 150/6/1 151/2/1 152/1/1
f 153/14/1 154/15/1 155/16/1 156/17/1
f 157/23/1 158/24/1 159/25/1 160/26/1
f 161/27/1 162/28/1 163/29/1 164/30/1
f 165/31/1 166/23/1 167/26/1 168/32/1
f 169/33/1 170/34/1 171/35/1 172/36/1
f 173/37/1 174/33/1 175/36/1 176/38/1
f 177/39/1 178/37/1 179/38/1 180/40/1
f 181/41/1 182/42/1 183/43/1 184/44/1
f 185/41/1 186/42/1 187/43/1 188/44/1
f 189/14/1 190/15/1 191/16/1 192/17/1
f 193/45/1 194/46/1 195/47/1 196/48/1
f 197/25/1 198/45/1 199/48/1 200/49/1
f 201/25/1 202/45/1 203/48/1 204/49/1
f 205/41/1 206/42/1 207/43/1 208/44/1
f 209/41/1 210/42/1 211/43/1 212/44/1
f 213/14/1 214/15/1 215/16/1 216/17/1
f 217/50/1 218/51/1 219/52/1 220/46/1
f 221/53/1 222/50/1 223/46/1 224/45/1
f 225/2/1 226/12/1 227/13/1 228/3/1
f 229/13/1 230/10/1 231/50/1 232/53/1
f 233/2/1 234/12/1 235/13/1 236/3/1
f 237/2/1 238/12/1 239/13/1 240/3/1
f 241/23/1 242/24/1 243/25/1 244/26/1
f 245/31/1 246/23/1 247/26/1 248/32/1
f 249/45/1 250/46/1 251/47/1 252/48/1
f 253/25/1 254/45/1 255/48/1 256/49/1
f 257/25/1 258/45/1 259/48/1 260/49/1
f 261/31/1 262/23/1 263/26/1 264/32/1
f 265/10/1 266/9/1 267/51/1 268/50/1
f 269/13/1 270/10/1 271/50/1 272/53/1
f 273/2/1 274/12/1 275/13/1 276/3/1
f 277/13/1 278/10/1 279/50/1 280/53/1
f 281/2/1 282/12/1 283/13/1 284/3/1
f 285/2/1 286/12/1 287/13/1 288/3/1
f 289/2/1 290/12/1 291/13/1 292/3/1
f 293/14/1 294/15/1 295/16/1 296/17/1
f 297/33/1 298/34/1 299/35/1 300/36/1
f 301/37/1 302/33/1 303/36/1 304/38/1
f 305/39/1 306/37/1 307/38/1 308/40/1
f 309/10/1 310/9/1 311/51/1 312/50/1
f 313/2/1 314/12/1 315/13/1 316/3/1
f 317/2/1 318/12/1 319/13/1 320/3/1
f 321/54/1 322/4/1 323/23/1 324/31/1
f 325/10/1 326/9/1 327/51/1 328/50/1
f 329/13/1 330/10/1 331/50/1 332/53/1
f 333/2/1 334/12/1 335/13/1 336/3/1
f 337/2/1 338/12/1 339/13/1 340/3/1
f 341/2/1 342/12/1 343/13/1 344/3/1
f 345/2/1 346/12/1 347/13/1 348/3/1
f 349/2/1 350/12/1 351/13/1 352/3/1
f 353/23/1 354/24/1 355/25/1 356/26/1
f 357/31/1 358/23/1 359/26/1 360/32/1
f 361/10/1 362/9/1 363/51/1 364/50/1
f 365/2/1 366/12/1 367/13/1 368/3/1
f 369/2/1 370/12/1 371/13/1 372/3/1
f 373/54/1 374/4/1 375/23/1 376/31/1
f 377/10/1 378/9/1 379/51/1 380/50/1
f 381/2/1 382/12/1 383/13/1 384/3/1
f 385/2/1 386/12/1 387/13/1 388/3/1
f 389/2/1 390/12/1 391/13/1 392/3/1
f 393/2/1 394/12/1 395/13/1 396/3/1
f 397/2/1 398/12/1 399/13/1 400/3/1
f 401/2/1 402/12/1 403/13/1 404/3/1
f 405/41/1 406/42/1 407/43/1 408/44/1
f 409/14/1 410/15/1 411/16/1 412/17/1
f 413/10/1 414/9/1 415/51/1 416/50/1
f 417/2/1 418/12/1 419/13/1 420/3/1
f 421/2/1 422/12/1 423/13/1 424/3/1
f 425/54/1 426/4/1 427/23/1 428/31/1
f 429/10/1 430/9/1 431/51/1 432/50/1
f 433/2/1 434/12/1 435/13/1 436/3/1
f 437/2/1 438/12/1 439/13/1 440/3/1
f 441/2/1 442/12/1 443/13/1 444/3/1
f 445/2/1 446/12/1 447/13/1 448/3/1
f 449/2/1 450/12/1 451/13/1 452/3/1
f 453/2/1 454/12/1 455/13/1 456/3/1
f 457/2/1 458/12/1 459/13/1 460/3/1
f 461/23/1 462/24/1 463/25/1 464/26/1
f 465/27/1 466/28/1 467/29/1 468/30/1
f 469/55/1 470/27/1 471/30/1 472/56/1
f 473/10/1 474/9/1 475/51/1 476/50/1
f 477/2/1 478/12/1 479/13/1 480/3/1
f 481/2/1 482/12/1 483/13/1 484/3/1
f 485/54/1 486/4/1 487/23/1 488/31/1
f 489/10/1 490/9/1 491/51/1 492/50/1
f 493/2/1 494/12/1 495/13/1 496/3/1
f 497/2/1 498/12/1 499/13/1 500/3/1
f 501/2/1 502/12/1 503/13/1 504/3/1

