# Tiled2Unity generated file. Do not modify by hand.
# Wavefront file for 'Stage_1_3_v3_mesh_0001.obj'

# Vertices (Count = 716)
v -29 -1 0
v -30 -1 0
v -30 0 0
v -29 0 0
v -28 -1 0
v -29 -1 0
v -29 0 0
v -28 0 0
v -29 -2 0
v -30 -2 0
v -30 -1 0
v -29 -1 0
v -28 -2 0
v -29 -2 0
v -29 -1 0
v -28 -1 0
v -1 -2 0
v -2 -2 0
v -2 -1 0
v -1 -1 0
v -29 -3 0
v -30 -3 0
v -30 -2 0
v -29 -2 0
v -28 -3 0
v -29 -3 0
v -29 -2 0
v -28 -2 0
v -18 -3 0
v -19 -3 0
v -19 -2 0
v -18 -2 0
v -17 -3 0
v -18 -3 0
v -18 -2 0
v -17 -2 0
v -6 -3 0
v -7 -3 0
v -7 -2 0
v -6 -2 0
v -3 -3 0
v -4 -3 0
v -4 -2 0
v -3 -2 0
v -2 -3 0
v -3 -3 0
v -3 -2 0
v -2 -2 0
v -1 -3 0
v -2 -3 0
v -2 -2 0
v -1 -2 0
v 0 -3 0
v -1 -3 0
v -1 -2 0
v 0 -2 0
v -29 -4 0
v -30 -4 0
v -30 -3 0
v -29 -3 0
v -28 -4 0
v -29 -4 0
v -29 -3 0
v -28 -3 0
v -20 -4 0
v -21 -4 0
v -21 -3 0
v -20 -3 0
v -19 -4 0
v -20 -4 0
v -20 -3 0
v -19 -3 0
v -18 -4 0
v -19 -4 0
v -19 -3 0
v -18 -3 0
v -17 -4 0
v -18 -4 0
v -18 -3 0
v -17 -3 0
v -16 -4 0
v -17 -4 0
v -17 -3 0
v -16 -3 0
v -15 -4 0
v -16 -4 0
v -16 -3 0
v -15 -3 0
v -14 -4 0
v -15 -4 0
v -15 -3 0
v -14 -3 0
v -13 -4 0
v -14 -4 0
v -14 -3 0
v -13 -3 0
v -12 -4 0
v -13 -4 0
v -13 -3 0
v -12 -3 0
v -11 -4 0
v -12 -4 0
v -12 -3 0
v -11 -3 0
v -10 -4 0
v -11 -4 0
v -11 -3 0
v -10 -3 0
v -9 -4 0
v -10 -4 0
v -10 -3 0
v -9 -3 0
v -8 -4 0
v -9 -4 0
v -9 -3 0
v -8 -3 0
v -7 -4 0
v -8 -4 0
v -8 -3 0
v -7 -3 0
v -6 -4 0
v -7 -4 0
v -7 -3 0
v -6 -3 0
v -5 -4 0
v -6 -4 0
v -6 -3 0
v -5 -3 0
v -4 -4 0
v -5 -4 0
v -5 -3 0
v -4 -3 0
v -3 -4 0
v -4 -4 0
v -4 -3 0
v -3 -3 0
v -2 -4 0
v -3 -4 0
v -3 -3 0
v -2 -3 0
v -1 -4 0
v -2 -4 0
v -2 -3 0
v -1 -3 0
v 0 -4 0
v -1 -4 0
v -1 -3 0
v 0 -3 0
v -29 -5 0
v -30 -5 0
v -30 -4 0
v -29 -4 0
v -28 -5 0
v -29 -5 0
v -29 -4 0
v -28 -4 0
v -20 -5 0
v -21 -5 0
v -21 -4 0
v -20 -4 0
v -19 -5 0
v -20 -5 0
v -20 -4 0
v -19 -4 0
v -18 -5 0
v -19 -5 0
v -19 -4 0
v -18 -4 0
v -17 -5 0
v -18 -5 0
v -18 -4 0
v -17 -4 0
v -16 -5 0
v -17 -5 0
v -17 -4 0
v -16 -4 0
v -15 -5 0
v -16 -5 0
v -16 -4 0
v -15 -4 0
v -14 -5 0
v -15 -5 0
v -15 -4 0
v -14 -4 0
v -13 -5 0
v -14 -5 0
v -14 -4 0
v -13 -4 0
v -12 -5 0
v -13 -5 0
v -13 -4 0
v -12 -4 0
v -11 -5 0
v -12 -5 0
v -12 -4 0
v -11 -4 0
v -10 -5 0
v -11 -5 0
v -11 -4 0
v -10 -4 0
v -9 -5 0
v -10 -5 0
v -10 -4 0
v -9 -4 0
v -8 -5 0
v -9 -5 0
v -9 -4 0
v -8 -4 0
v -7 -5 0
v -8 -5 0
v -8 -4 0
v -7 -4 0
v -6 -5 0
v -7 -5 0
v -7 -4 0
v -6 -4 0
v -5 -5 0
v -6 -5 0
v -6 -4 0
v -5 -4 0
v -4 -5 0
v -5 -5 0
v -5 -4 0
v -4 -4 0
v -3 -5 0
v -4 -5 0
v -4 -4 0
v -3 -4 0
v -2 -5 0
v -3 -5 0
v -3 -4 0
v -2 -4 0
v -1 -5 0
v -2 -5 0
v -2 -4 0
v -1 -4 0
v 0 -5 0
v -1 -5 0
v -1 -4 0
v 0 -4 0
v -29 -6 0
v -30 -6 0
v -30 -5 0
v -29 -5 0
v -28 -6 0
v -29 -6 0
v -29 -5 0
v -28 -5 0
v -3 -6 0
v -4 -6 0
v -4 -5 0
v -3 -5 0
v -2 -6 0
v -3 -6 0
v -3 -5 0
v -2 -5 0
v -1 -6 0
v -2 -6 0
v -2 -5 0
v -1 -5 0
v 0 -6 0
v -1 -6 0
v -1 -5 0
v 0 -5 0
v -29 -7 0
v -30 -7 0
v -30 -6 0
v -29 -6 0
v -28 -7 0
v -29 -7 0
v -29 -6 0
v -28 -6 0
v -3 -7 0
v -4 -7 0
v -4 -6 0
v -3 -6 0
v -2 -7 0
v -3 -7 0
v -3 -6 0
v -2 -6 0
v -1 -7 0
v -2 -7 0
v -2 -6 0
v -1 -6 0
v 0 -7 0
v -1 -7 0
v -1 -6 0
v 0 -6 0
v -29 -8 0
v -30 -8 0
v -30 -7 0
v -29 -7 0
v -28 -8 0
v -29 -8 0
v -29 -7 0
v -28 -7 0
v -23 -8 0
v -24 -8 0
v -24 -7 0
v -23 -7 0
v -3 -8 0
v -4 -8 0
v -4 -7 0
v -3 -7 0
v -2 -8 0
v -3 -8 0
v -3 -7 0
v -2 -7 0
v -1 -8 0
v -2 -8 0
v -2 -7 0
v -1 -7 0
v 0 -8 0
v -1 -8 0
v -1 -7 0
v 0 -7 0
v -29 -9 0
v -30 -9 0
v -30 -8 0
v -29 -8 0
v -28 -9 0
v -29 -9 0
v -29 -8 0
v -28 -8 0
v -27 -9 0
v -28 -9 0
v -28 -8 0
v -27 -8 0
v -26 -9 0
v -27 -9 0
v -27 -8 0
v -26 -8 0
v -25 -9 0
v -26 -9 0
v -26 -8 0
v -25 -8 0
v -24 -9 0
v -25 -9 0
v -25 -8 0
v -24 -8 0
v -23 -9 0
v -24 -9 0
v -24 -8 0
v -23 -8 0
v -22 -9 0
v -23 -9 0
v -23 -8 0
v -22 -8 0
v -21 -9 0
v -22 -9 0
v -22 -8 0
v -21 -8 0
v -20 -9 0
v -21 -9 0
v -21 -8 0
v -20 -8 0
v -19 -9 0
v -20 -9 0
v -20 -8 0
v -19 -8 0
v -18 -9 0
v -19 -9 0
v -19 -8 0
v -18 -8 0
v -17 -9 0
v -18 -9 0
v -18 -8 0
v -17 -8 0
v -16 -9 0
v -17 -9 0
v -17 -8 0
v -16 -8 0
v -15 -9 0
v -16 -9 0
v -16 -8 0
v -15 -8 0
v -14 -9 0
v -15 -9 0
v -15 -8 0
v -14 -8 0
v -13 -9 0
v -14 -9 0
v -14 -8 0
v -13 -8 0
v -12 -9 0
v -13 -9 0
v -13 -8 0
v -12 -8 0
v -11 -9 0
v -12 -9 0
v -12 -8 0
v -11 -8 0
v -3 -9 0
v -4 -9 0
v -4 -8 0
v -3 -8 0
v -2 -9 0
v -3 -9 0
v -3 -8 0
v -2 -8 0
v -1 -9 0
v -2 -9 0
v -2 -8 0
v -1 -8 0
v 0 -9 0
v -1 -9 0
v -1 -8 0
v 0 -8 0
v -29 -10 0
v -30 -10 0
v -30 -9 0
v -29 -9 0
v -28 -10 0
v -29 -10 0
v -29 -9 0
v -28 -9 0
v -27 -10 0
v -28 -10 0
v -28 -9 0
v -27 -9 0
v -26 -10 0
v -27 -10 0
v -27 -9 0
v -26 -9 0
v -25 -10 0
v -26 -10 0
v -26 -9 0
v -25 -9 0
v -24 -10 0
v -25 -10 0
v -25 -9 0
v -24 -9 0
v -23 -10 0
v -24 -10 0
v -24 -9 0
v -23 -9 0
v -22 -10 0
v -23 -10 0
v -23 -9 0
v -22 -9 0
v -21 -10 0
v -22 -10 0
v -22 -9 0
v -21 -9 0
v -20 -10 0
v -21 -10 0
v -21 -9 0
v -20 -9 0
v -19 -10 0
v -20 -10 0
v -20 -9 0
v -19 -9 0
v -18 -10 0
v -19 -10 0
v -19 -9 0
v -18 -9 0
v -17 -10 0
v -18 -10 0
v -18 -9 0
v -17 -9 0
v -16 -10 0
v -17 -10 0
v -17 -9 0
v -16 -9 0
v -15 -10 0
v -16 -10 0
v -16 -9 0
v -15 -9 0
v -14 -10 0
v -15 -10 0
v -15 -9 0
v -14 -9 0
v -13 -10 0
v -14 -10 0
v -14 -9 0
v -13 -9 0
v -12 -10 0
v -13 -10 0
v -13 -9 0
v -12 -9 0
v -11 -10 0
v -12 -10 0
v -12 -9 0
v -11 -9 0
v -10 -10 0
v -11 -10 0
v -11 -9 0
v -10 -9 0
v -3 -10 0
v -4 -10 0
v -4 -9 0
v -3 -9 0
v -2 -10 0
v -3 -10 0
v -3 -9 0
v -2 -9 0
v -1 -10 0
v -2 -10 0
v -2 -9 0
v -1 -9 0
v 0 -10 0
v -1 -10 0
v -1 -9 0
v 0 -9 0
v -29 -11 0
v -30 -11 0
v -30 -10 0
v -29 -10 0
v -28 -11 0
v -29 -11 0
v -29 -10 0
v -28 -10 0
v -27 -11 0
v -28 -11 0
v -28 -10 0
v -27 -10 0
v -26 -11 0
v -27 -11 0
v -27 -10 0
v -26 -10 0
v -25 -11 0
v -26 -11 0
v -26 -10 0
v -25 -10 0
v -24 -11 0
v -25 -11 0
v -25 -10 0
v -24 -10 0
v -23 -11 0
v -24 -11 0
v -24 -10 0
v -23 -10 0
v -22 -11 0
v -23 -11 0
v -23 -10 0
v -22 -10 0
v -21 -11 0
v -22 -11 0
v -22 -10 0
v -21 -10 0
v -20 -11 0
v -21 -11 0
v -21 -10 0
v -20 -10 0
v -19 -11 0
v -20 -11 0
v -20 -10 0
v -19 -10 0
v -18 -11 0
v -19 -11 0
v -19 -10 0
v -18 -10 0
v -17 -11 0
v -18 -11 0
v -18 -10 0
v -17 -10 0
v -16 -11 0
v -17 -11 0
v -17 -10 0
v -16 -10 0
v -15 -11 0
v -16 -11 0
v -16 -10 0
v -15 -10 0
v -14 -11 0
v -15 -11 0
v -15 -10 0
v -14 -10 0
v -13 -11 0
v -14 -11 0
v -14 -10 0
v -13 -10 0
v -12 -11 0
v -13 -11 0
v -13 -10 0
v -12 -10 0
v -11 -11 0
v -12 -11 0
v -12 -10 0
v -11 -10 0
v -10 -11 0
v -11 -11 0
v -11 -10 0
v -10 -10 0
v -9 -11 0
v -10 -11 0
v -10 -10 0
v -9 -10 0
v -7 -11 0
v -8 -11 0
v -8 -10 0
v -7 -10 0
v -3 -11 0
v -4 -11 0
v -4 -10 0
v -3 -10 0
v -2 -11 0
v -3 -11 0
v -3 -10 0
v -2 -10 0
v -1 -11 0
v -2 -11 0
v -2 -10 0
v -1 -10 0
v 0 -11 0
v -1 -11 0
v -1 -10 0
v 0 -10 0
v -29 -12 0
v -30 -12 0
v -30 -11 0
v -29 -11 0
v -28 -12 0
v -29 -12 0
v -29 -11 0
v -28 -11 0
v -27 -12 0
v -28 -12 0
v -28 -11 0
v -27 -11 0
v -26 -12 0
v -27 -12 0
v -27 -11 0
v -26 -11 0
v -25 -12 0
v -26 -12 0
v -26 -11 0
v -25 -11 0
v -24 -12 0
v -25 -12 0
v -25 -11 0
v -24 -11 0
v -23 -12 0
v -24 -12 0
v -24 -11 0
v -23 -11 0
v -22 -12 0
v -23 -12 0
v -23 -11 0
v -22 -11 0
v -21 -12 0
v -22 -12 0
v -22 -11 0
v -21 -11 0
v -20 -12 0
v -21 -12 0
v -21 -11 0
v -20 -11 0
v -19 -12 0
v -20 -12 0
v -20 -11 0
v -19 -11 0
v -18 -12 0
v -19 -12 0
v -19 -11 0
v -18 -11 0
v -17 -12 0
v -18 -12 0
v -18 -11 0
v -17 -11 0
v -16 -12 0
v -17 -12 0
v -17 -11 0
v -16 -11 0
v -15 -12 0
v -16 -12 0
v -16 -11 0
v -15 -11 0
v -14 -12 0
v -15 -12 0
v -15 -11 0
v -14 -11 0
v -13 -12 0
v -14 -12 0
v -14 -11 0
v -13 -11 0
v -12 -12 0
v -13 -12 0
v -13 -11 0
v -12 -11 0
v -11 -12 0
v -12 -12 0
v -12 -11 0
v -11 -11 0
v -10 -12 0
v -11 -12 0
v -11 -11 0
v -10 -11 0
v -9 -12 0
v -10 -12 0
v -10 -11 0
v -9 -11 0
v -8 -12 0
v -9 -12 0
v -9 -11 0
v -8 -11 0
v -7 -12 0
v -8 -12 0
v -8 -11 0
v -7 -11 0
v -3 -12 0
v -4 -12 0
v -4 -11 0
v -3 -11 0
v -2 -12 0
v -3 -12 0
v -3 -11 0
v -2 -11 0
v -1 -12 0
v -2 -12 0
v -2 -11 0
v -1 -11 0
v 0 -12 0
v -1 -12 0
v -1 -11 0
v 0 -11 0

# Texture cooridinates (Count = 44)
vt 0.875 0.5833334
vt 0.9 0.5833334
vt 0.9 0.6666666
vt 0.875 0.6666666
vt 0.825 0.5
vt 0.85 0.5
vt 0.85 0.5833334
vt 0.825 0.5833334
vt 0.475 0.6666666
vt 0.5 0.6666666
vt 0.5 0.75
vt 0.475 0.75
vt 0.45 0.6666666
vt 0.45 0.75
vt 0.925 0.5833334
vt 0.95 0.5833334
vt 0.95 0.6666666
vt 0.925 0.6666666
vt 0.9 0.75
vt 0.875 0.75
vt 0.875 0.5
vt 0.9 0.5
vt 0.925 0.75
vt 0.875 0.4166667
vt 0.9 0.4166667
vt 0.925 0.4166667
vt 0.95 0.4166667
vt 0.95 0.5
vt 0.925 0.5
vt 0.875 0.3333333
vt 0.9 0.3333333
vt 0.475 0.5
vt 0.5 0.5
vt 0.5 0.5833334
vt 0.475 0.5833334
vt 0.85 0.6666666
vt 0.825 0.6666666
vt 0.175 0.25
vt 0.2 0.25
vt 0.2 0.3333333
vt 0.175 0.3333333
vt 0.2 0.1666667
vt 0.225 0.1666667
vt 0.225 0.25

# Normal
vn 0 0 -1

# Mesh description
g Stage_1_3_v3_mesh_0001

# Faces
f 1/1/1 2/2/1 3/3/1 4/4/1
f 5/5/1 6/6/1 7/7/1 8/8/1
f 9/1/1 10/2/1 11/3/1 12/4/1
f 13/5/1 14/6/1 15/7/1 16/8/1
f 17/9/1 18/10/1 19/11/1 20/12/1
f 21/1/1 22/2/1 23/3/1 24/4/1
f 25/5/1 26/6/1 27/7/1 28/8/1
f 29/9/1 30/10/1 31/11/1 32/12/1
f 33/13/1 34/9/1 35/12/1 36/14/1
f 37/9/1 38/10/1 39/11/1 40/12/1
f 41/15/1 42/16/1 43/17/1 44/18/1
f 45/4/1 46/3/1 47/19/1 48/20/1
f 49/4/1 50/3/1 51/19/1 52/20/1
f 53/4/1 54/3/1 55/19/1 56/20/1
f 57/21/1 58/22/1 59/2/1 60/1/1
f 61/5/1 62/6/1 63/7/1 64/8/1
f 65/3/1 66/18/1 67/23/1 68/19/1
f 69/4/1 70/3/1 71/19/1 72/20/1
f 73/4/1 74/3/1 75/19/1 76/20/1
f 77/4/1 78/3/1 79/19/1 80/20/1
f 81/4/1 82/3/1 83/19/1 84/20/1
f 85/4/1 86/3/1 87/19/1 88/20/1
f 89/4/1 90/3/1 91/19/1 92/20/1
f 93/4/1 94/3/1 95/19/1 96/20/1
f 97/4/1 98/3/1 99/19/1 100/20/1
f 101/4/1 102/3/1 103/19/1 104/20/1
f 105/4/1 106/3/1 107/19/1 108/20/1
f 109/4/1 110/3/1 111/19/1 112/20/1
f 113/4/1 114/3/1 115/19/1 116/20/1
f 117/4/1 118/3/1 119/19/1 120/20/1
f 121/4/1 122/3/1 123/19/1 124/20/1
f 125/4/1 126/3/1 127/19/1 128/20/1
f 129/4/1 130/3/1 131/19/1 132/20/1
f 133/2/1 134/15/1 135/18/1 136/3/1
f 137/24/1 138/25/1 139/22/1 140/21/1
f 141/24/1 142/25/1 143/22/1 144/21/1
f 145/24/1 146/25/1 147/22/1 148/21/1
f 149/24/1 150/25/1 151/22/1 152/21/1
f 153/5/1 154/6/1 155/7/1 156/8/1
f 157/26/1 158/27/1 159/28/1 160/29/1
f 161/30/1 162/31/1 163/25/1 164/24/1
f 165/30/1 166/31/1 167/25/1 168/24/1
f 169/30/1 170/31/1 171/25/1 172/24/1
f 173/30/1 174/31/1 175/25/1 176/24/1
f 177/30/1 178/31/1 179/25/1 180/24/1
f 181/30/1 182/31/1 183/25/1 184/24/1
f 185/30/1 186/31/1 187/25/1 188/24/1
f 189/30/1 190/31/1 191/25/1 192/24/1
f 193/30/1 194/31/1 195/25/1 196/24/1
f 197/30/1 198/31/1 199/25/1 200/24/1
f 201/30/1 202/31/1 203/25/1 204/24/1
f 205/30/1 206/31/1 207/25/1 208/24/1
f 209/30/1 210/31/1 211/25/1 212/24/1
f 213/30/1 214/31/1 215/25/1 216/24/1
f 217/30/1 218/31/1 219/25/1 220/24/1
f 221/30/1 222/31/1 223/25/1 224/24/1
f 225/6/1 226/21/1 227/1/1 228/7/1
f 229/24/1 230/25/1 231/22/1 232/21/1
f 233/22/1 234/29/1 235/15/1 236/2/1
f 237/21/1 238/22/1 239/2/1 240/1/1
f 241/24/1 242/25/1 243/22/1 244/21/1
f 245/5/1 246/6/1 247/7/1 248/8/1
f 249/32/1 250/33/1 251/34/1 252/35/1
f 253/24/1 254/25/1 255/22/1 256/21/1
f 257/24/1 258/25/1 259/22/1 260/21/1
f 261/24/1 262/25/1 263/22/1 264/21/1
f 265/21/1 266/22/1 267/2/1 268/1/1
f 269/5/1 270/6/1 271/7/1 272/8/1
f 273/32/1 274/33/1 275/34/1 276/35/1
f 277/24/1 278/25/1 279/22/1 280/21/1
f 281/24/1 282/25/1 283/22/1 284/21/1
f 285/24/1 286/25/1 287/22/1 288/21/1
f 289/24/1 290/25/1 291/22/1 292/21/1
f 293/5/1 294/6/1 295/7/1 296/8/1
f 297/13/1 298/9/1 299/12/1 300/14/1
f 301/32/1 302/33/1 303/34/1 304/35/1
f 305/24/1 306/25/1 307/22/1 308/21/1
f 309/6/1 310/21/1 311/1/1 312/7/1
f 313/24/1 314/25/1 315/22/1 316/21/1
f 317/24/1 318/25/1 319/22/1 320/21/1
f 321/7/1 322/1/1 323/4/1 324/36/1
f 325/4/1 326/3/1 327/19/1 328/20/1
f 329/4/1 330/3/1 331/19/1 332/20/1
f 333/4/1 334/3/1 335/19/1 336/20/1
f 337/4/1 338/3/1 339/19/1 340/20/1
f 341/4/1 342/3/1 343/19/1 344/20/1
f 345/4/1 346/3/1 347/19/1 348/20/1
f 349/4/1 350/3/1 351/19/1 352/20/1
f 353/4/1 354/3/1 355/19/1 356/20/1
f 357/4/1 358/3/1 359/19/1 360/20/1
f 361/4/1 362/3/1 363/19/1 364/20/1
f 365/4/1 366/3/1 367/19/1 368/20/1
f 369/4/1 370/3/1 371/19/1 372/20/1
f 373/4/1 374/3/1 375/19/1 376/20/1
f 377/4/1 378/3/1 379/19/1 380/20/1
f 381/8/1 382/7/1 383/36/1 384/37/1
f 385/9/1 386/10/1 387/11/1 388/12/1
f 389/13/1 390/9/1 391/12/1 392/14/1
f 393/32/1 394/33/1 395/34/1 396/35/1
f 397/6/1 398/21/1 399/1/1 400/7/1
f 401/24/1 402/25/1 403/22/1 404/21/1
f 405/24/1 406/25/1 407/22/1 408/21/1
f 409/24/1 410/25/1 411/22/1 412/21/1
f 413/24/1 414/25/1 415/22/1 416/21/1
f 417/24/1 418/25/1 419/22/1 420/21/1
f 421/38/1 422/39/1 423/40/1 424/41/1
f 425/38/1 426/39/1 427/40/1 428/41/1
f 429/38/1 430/39/1 431/40/1 432/41/1
f 433/24/1 434/25/1 435/22/1 436/21/1
f 437/24/1 438/25/1 439/22/1 440/21/1
f 441/24/1 442/25/1 443/22/1 444/21/1
f 445/24/1 446/25/1 447/22/1 448/21/1
f 449/24/1 450/25/1 451/22/1 452/21/1
f 453/24/1 454/25/1 455/22/1 456/21/1
f 457/24/1 458/25/1 459/22/1 460/21/1
f 461/24/1 462/25/1 463/22/1 464/21/1
f 465/24/1 466/25/1 467/22/1 468/21/1
f 469/24/1 470/25/1 471/22/1 472/21/1
f 473/7/1 474/1/1 475/4/1 476/36/1
f 477/4/1 478/3/1 479/19/1 480/20/1
f 481/4/1 482/3/1 483/19/1 484/20/1
f 485/8/1 486/7/1 487/36/1 488/37/1
f 489/32/1 490/33/1 491/34/1 492/35/1
f 493/24/1 494/25/1 495/22/1 496/21/1
f 497/24/1 498/25/1 499/22/1 500/21/1
f 501/24/1 502/25/1 503/22/1 504/21/1
f 505/24/1 506/25/1 507/22/1 508/21/1
f 509/24/1 510/25/1 511/22/1 512/21/1
f 513/24/1 514/25/1 515/22/1 516/21/1
f 517/24/1 518/25/1 519/22/1 520/21/1
f 521/42/1 522/43/1 523/44/1 524/39/1
f 525/42/1 526/43/1 527/44/1 528/39/1
f 529/42/1 530/43/1 531/44/1 532/39/1
f 533/42/1 534/43/1 535/44/1 536/39/1
f 537/42/1 538/43/1 539/44/1 540/39/1
f 541/42/1 542/43/1 543/44/1 544/39/1
f 545/42/1 546/43/1 547/44/1 548/39/1
f 549/24/1 550/25/1 551/22/1 552/21/1
f 553/24/1 554/25/1 555/22/1 556/21/1
f 557/24/1 558/25/1 559/22/1 560/21/1
f 561/24/1 562/25/1 563/22/1 564/21/1
f 565/24/1 566/25/1 567/22/1 568/21/1
f 569/24/1 570/25/1 571/22/1 572/21/1
f 573/24/1 574/25/1 575/22/1 576/21/1
f 577/24/1 578/25/1 579/22/1 580/21/1
f 581/7/1 582/1/1 583/4/1 584/36/1
f 585/8/1 586/7/1 587/36/1 588/37/1
f 589/9/1 590/10/1 591/11/1 592/12/1
f 593/32/1 594/33/1 595/34/1 596/35/1
f 597/24/1 598/25/1 599/22/1 600/21/1
f 601/24/1 602/25/1 603/22/1 604/21/1
f 605/24/1 606/25/1 607/22/1 608/21/1
f 609/24/1 610/25/1 611/22/1 612/21/1
f 613/24/1 614/25/1 615/22/1 616/21/1
f 617/24/1 618/25/1 619/22/1 620/21/1
f 621/42/1 622/43/1 623/44/1 624/39/1
f 625/42/1 626/43/1 627/44/1 628/39/1
f 629/42/1 630/43/1 631/44/1 632/39/1
f 633/42/1 634/43/1 635/44/1 636/39/1
f 637/42/1 638/43/1 639/44/1 640/39/1
f 641/24/1 642/25/1 643/22/1 644/21/1
f 645/24/1 646/25/1 647/22/1 648/21/1
f 649/24/1 650/25/1 651/22/1 652/21/1
f 653/24/1 654/25/1 655/22/1 656/21/1
f 657/24/1 658/25/1 659/22/1 660/21/1
f 661/24/1 662/25/1 663/22/1 664/21/1
f 665/24/1 666/25/1 667/22/1 668/21/1
f 669/24/1 670/25/1 671/22/1 672/21/1
f 673/24/1 674/25/1 675/22/1 676/21/1
f 677/24/1 678/25/1 679/22/1 680/21/1
f 681/24/1 682/25/1 683/22/1 684/21/1
f 685/7/1 686/1/1 687/4/1 688/36/1
f 689/4/1 690/3/1 691/19/1 692/20/1
f 693/4/1 694/3/1 695/19/1 696/20/1
f 697/8/1 698/7/1 699/36/1 700/37/1
f 701/32/1 702/33/1 703/34/1 704/35/1
f 705/24/1 706/25/1 707/22/1 708/21/1
f 709/24/1 710/25/1 711/22/1 712/21/1
f 713/24/1 714/25/1 715/22/1 716/21/1

